<?xml version="1.0" encoding="utf-8"?>
<svg xmlns="http://www.w3.org/2000/svg" xmlns:xlink="http://www.w3.org/1999/xlink" width="600" height="400" viewBox="0 0 2400 1600">
<defs>
  <clipPath id="clip530">
    <rect x="0" y="0" width="2400" height="1600"/>
  </clipPath>
</defs>
<path clip-path="url(#clip530)" d="
M0 1600 L2400 1600 L2400 0 L0 0  Z
  " fill="#ffffff" fill-rule="evenodd" fill-opacity="1"/>
<defs>
  <clipPath id="clip531">
    <rect x="480" y="0" width="1681" height="1600"/>
  </clipPath>
</defs>
<path clip-path="url(#clip530)" d="
M148.057 1486.45 L2352.76 1486.45 L2352.76 47.2441 L148.057 47.2441  Z
  " fill="#ffffff" fill-rule="evenodd" fill-opacity="1"/>
<defs>
  <clipPath id="clip532">
    <rect x="148" y="47" width="2206" height="1440"/>
  </clipPath>
</defs>
<polyline clip-path="url(#clip532)" style="stroke:#000000; stroke-linecap:butt; stroke-linejoin:round; stroke-width:2; stroke-opacity:0.1; fill:none" points="
  206.2,1486.45 206.2,47.2441 
  "/>
<polyline clip-path="url(#clip532)" style="stroke:#000000; stroke-linecap:butt; stroke-linejoin:round; stroke-width:2; stroke-opacity:0.1; fill:none" points="
  631.539,1486.45 631.539,47.2441 
  "/>
<polyline clip-path="url(#clip532)" style="stroke:#000000; stroke-linecap:butt; stroke-linejoin:round; stroke-width:2; stroke-opacity:0.1; fill:none" points="
  1056.88,1486.45 1056.88,47.2441 
  "/>
<polyline clip-path="url(#clip532)" style="stroke:#000000; stroke-linecap:butt; stroke-linejoin:round; stroke-width:2; stroke-opacity:0.1; fill:none" points="
  1482.22,1486.45 1482.22,47.2441 
  "/>
<polyline clip-path="url(#clip532)" style="stroke:#000000; stroke-linecap:butt; stroke-linejoin:round; stroke-width:2; stroke-opacity:0.1; fill:none" points="
  1907.55,1486.45 1907.55,47.2441 
  "/>
<polyline clip-path="url(#clip532)" style="stroke:#000000; stroke-linecap:butt; stroke-linejoin:round; stroke-width:2; stroke-opacity:0.1; fill:none" points="
  2332.89,1486.45 2332.89,47.2441 
  "/>
<polyline clip-path="url(#clip530)" style="stroke:#000000; stroke-linecap:butt; stroke-linejoin:round; stroke-width:4; stroke-opacity:1; fill:none" points="
  148.057,1486.45 2352.76,1486.45 
  "/>
<polyline clip-path="url(#clip530)" style="stroke:#000000; stroke-linecap:butt; stroke-linejoin:round; stroke-width:4; stroke-opacity:1; fill:none" points="
  206.2,1486.45 206.2,1467.55 
  "/>
<polyline clip-path="url(#clip530)" style="stroke:#000000; stroke-linecap:butt; stroke-linejoin:round; stroke-width:4; stroke-opacity:1; fill:none" points="
  631.539,1486.45 631.539,1467.55 
  "/>
<polyline clip-path="url(#clip530)" style="stroke:#000000; stroke-linecap:butt; stroke-linejoin:round; stroke-width:4; stroke-opacity:1; fill:none" points="
  1056.88,1486.45 1056.88,1467.55 
  "/>
<polyline clip-path="url(#clip530)" style="stroke:#000000; stroke-linecap:butt; stroke-linejoin:round; stroke-width:4; stroke-opacity:1; fill:none" points="
  1482.22,1486.45 1482.22,1467.55 
  "/>
<polyline clip-path="url(#clip530)" style="stroke:#000000; stroke-linecap:butt; stroke-linejoin:round; stroke-width:4; stroke-opacity:1; fill:none" points="
  1907.55,1486.45 1907.55,1467.55 
  "/>
<polyline clip-path="url(#clip530)" style="stroke:#000000; stroke-linecap:butt; stroke-linejoin:round; stroke-width:4; stroke-opacity:1; fill:none" points="
  2332.89,1486.45 2332.89,1467.55 
  "/>
<path clip-path="url(#clip530)" d="M206.2 1517.37 Q202.589 1517.37 200.761 1520.93 Q198.955 1524.47 198.955 1531.6 Q198.955 1538.71 200.761 1542.27 Q202.589 1545.82 206.2 1545.82 Q209.835 1545.82 211.64 1542.27 Q213.469 1538.71 213.469 1531.6 Q213.469 1524.47 211.64 1520.93 Q209.835 1517.37 206.2 1517.37 M206.2 1513.66 Q212.011 1513.66 215.066 1518.27 Q218.145 1522.85 218.145 1531.6 Q218.145 1540.33 215.066 1544.94 Q212.011 1549.52 206.2 1549.52 Q200.39 1549.52 197.312 1544.94 Q194.256 1540.33 194.256 1531.6 Q194.256 1522.85 197.312 1518.27 Q200.39 1513.66 206.2 1513.66 Z" fill="#000000" fill-rule="evenodd" fill-opacity="1" /><path clip-path="url(#clip530)" d="M591.146 1544.91 L598.784 1544.91 L598.784 1518.55 L590.474 1520.21 L590.474 1515.95 L598.738 1514.29 L603.414 1514.29 L603.414 1544.91 L611.053 1544.91 L611.053 1548.85 L591.146 1548.85 L591.146 1544.91 Z" fill="#000000" fill-rule="evenodd" fill-opacity="1" /><path clip-path="url(#clip530)" d="M630.497 1517.37 Q626.886 1517.37 625.057 1520.93 Q623.252 1524.47 623.252 1531.6 Q623.252 1538.71 625.057 1542.27 Q626.886 1545.82 630.497 1545.82 Q634.131 1545.82 635.937 1542.27 Q637.766 1538.71 637.766 1531.6 Q637.766 1524.47 635.937 1520.93 Q634.131 1517.37 630.497 1517.37 M630.497 1513.66 Q636.307 1513.66 639.363 1518.27 Q642.442 1522.85 642.442 1531.6 Q642.442 1540.33 639.363 1544.94 Q636.307 1549.52 630.497 1549.52 Q624.687 1549.52 621.608 1544.94 Q618.553 1540.33 618.553 1531.6 Q618.553 1522.85 621.608 1518.27 Q624.687 1513.66 630.497 1513.66 Z" fill="#000000" fill-rule="evenodd" fill-opacity="1" /><path clip-path="url(#clip530)" d="M660.659 1517.37 Q657.048 1517.37 655.219 1520.93 Q653.414 1524.47 653.414 1531.6 Q653.414 1538.71 655.219 1542.27 Q657.048 1545.82 660.659 1545.82 Q664.293 1545.82 666.099 1542.27 Q667.928 1538.71 667.928 1531.6 Q667.928 1524.47 666.099 1520.93 Q664.293 1517.37 660.659 1517.37 M660.659 1513.66 Q666.469 1513.66 669.525 1518.27 Q672.603 1522.85 672.603 1531.6 Q672.603 1540.33 669.525 1544.94 Q666.469 1549.52 660.659 1549.52 Q654.849 1549.52 651.77 1544.94 Q648.715 1540.33 648.715 1531.6 Q648.715 1522.85 651.77 1518.27 Q654.849 1513.66 660.659 1513.66 Z" fill="#000000" fill-rule="evenodd" fill-opacity="1" /><path clip-path="url(#clip530)" d="M1020.57 1544.91 L1036.89 1544.91 L1036.89 1548.85 L1014.94 1548.85 L1014.94 1544.91 Q1017.61 1542.16 1022.19 1537.53 Q1026.8 1532.88 1027.98 1531.53 Q1030.22 1529.01 1031.1 1527.27 Q1032 1525.51 1032 1523.82 Q1032 1521.07 1030.06 1519.33 Q1028.14 1517.6 1025.04 1517.6 Q1022.84 1517.6 1020.38 1518.36 Q1017.95 1519.13 1015.18 1520.68 L1015.18 1515.95 Q1018 1514.82 1020.45 1514.24 Q1022.91 1513.66 1024.94 1513.66 Q1030.31 1513.66 1033.51 1516.35 Q1036.7 1519.03 1036.7 1523.52 Q1036.7 1525.65 1035.89 1527.57 Q1035.11 1529.47 1033 1532.07 Q1032.42 1532.74 1029.32 1535.95 Q1026.22 1539.15 1020.57 1544.91 Z" fill="#000000" fill-rule="evenodd" fill-opacity="1" /><path clip-path="url(#clip530)" d="M1056.7 1517.37 Q1053.09 1517.37 1051.26 1520.93 Q1049.46 1524.47 1049.46 1531.6 Q1049.46 1538.71 1051.26 1542.27 Q1053.09 1545.82 1056.7 1545.82 Q1060.34 1545.82 1062.14 1542.27 Q1063.97 1538.71 1063.97 1531.6 Q1063.97 1524.47 1062.14 1520.93 Q1060.34 1517.37 1056.7 1517.37 M1056.7 1513.66 Q1062.51 1513.66 1065.57 1518.27 Q1068.65 1522.85 1068.65 1531.6 Q1068.65 1540.33 1065.57 1544.94 Q1062.51 1549.52 1056.7 1549.52 Q1050.89 1549.52 1047.81 1544.94 Q1044.76 1540.33 1044.76 1531.6 Q1044.76 1522.85 1047.81 1518.27 Q1050.89 1513.66 1056.7 1513.66 Z" fill="#000000" fill-rule="evenodd" fill-opacity="1" /><path clip-path="url(#clip530)" d="M1086.87 1517.37 Q1083.25 1517.37 1081.43 1520.93 Q1079.62 1524.47 1079.62 1531.6 Q1079.62 1538.71 1081.43 1542.27 Q1083.25 1545.82 1086.87 1545.82 Q1090.5 1545.82 1092.31 1542.27 Q1094.13 1538.71 1094.13 1531.6 Q1094.13 1524.47 1092.31 1520.93 Q1090.5 1517.37 1086.87 1517.37 M1086.87 1513.66 Q1092.68 1513.66 1095.73 1518.27 Q1098.81 1522.85 1098.81 1531.6 Q1098.81 1540.33 1095.73 1544.94 Q1092.68 1549.52 1086.87 1549.52 Q1081.06 1549.52 1077.98 1544.94 Q1074.92 1540.33 1074.92 1531.6 Q1074.92 1522.85 1077.98 1518.27 Q1081.06 1513.66 1086.87 1513.66 Z" fill="#000000" fill-rule="evenodd" fill-opacity="1" /><path clip-path="url(#clip530)" d="M1455.98 1530.21 Q1459.33 1530.93 1461.21 1533.2 Q1463.11 1535.47 1463.11 1538.8 Q1463.11 1543.92 1459.59 1546.72 Q1456.07 1549.52 1449.59 1549.52 Q1447.41 1549.52 1445.1 1549.08 Q1442.81 1548.66 1440.35 1547.81 L1440.35 1543.29 Q1442.3 1544.43 1444.61 1545.01 Q1446.93 1545.58 1449.45 1545.58 Q1453.85 1545.58 1456.14 1543.85 Q1458.45 1542.11 1458.45 1538.8 Q1458.45 1535.75 1456.3 1534.03 Q1454.17 1532.3 1450.35 1532.3 L1446.32 1532.3 L1446.32 1528.45 L1450.54 1528.45 Q1453.99 1528.45 1455.82 1527.09 Q1457.64 1525.7 1457.64 1523.11 Q1457.64 1520.45 1455.75 1519.03 Q1453.87 1517.6 1450.35 1517.6 Q1448.43 1517.6 1446.23 1518.01 Q1444.03 1518.43 1441.39 1519.31 L1441.39 1515.14 Q1444.06 1514.4 1446.37 1514.03 Q1448.71 1513.66 1450.77 1513.66 Q1456.09 1513.66 1459.2 1516.09 Q1462.3 1518.5 1462.3 1522.62 Q1462.3 1525.49 1460.65 1527.48 Q1459.01 1529.45 1455.98 1530.21 Z" fill="#000000" fill-rule="evenodd" fill-opacity="1" /><path clip-path="url(#clip530)" d="M1481.97 1517.37 Q1478.36 1517.37 1476.53 1520.93 Q1474.73 1524.47 1474.73 1531.6 Q1474.73 1538.71 1476.53 1542.27 Q1478.36 1545.82 1481.97 1545.82 Q1485.61 1545.82 1487.41 1542.27 Q1489.24 1538.71 1489.24 1531.6 Q1489.24 1524.47 1487.41 1520.93 Q1485.61 1517.37 1481.97 1517.37 M1481.97 1513.66 Q1487.78 1513.66 1490.84 1518.27 Q1493.92 1522.85 1493.92 1531.6 Q1493.92 1540.33 1490.84 1544.94 Q1487.78 1549.52 1481.97 1549.52 Q1476.16 1549.52 1473.08 1544.94 Q1470.03 1540.33 1470.03 1531.6 Q1470.03 1522.85 1473.08 1518.27 Q1476.16 1513.66 1481.97 1513.66 Z" fill="#000000" fill-rule="evenodd" fill-opacity="1" /><path clip-path="url(#clip530)" d="M1512.13 1517.37 Q1508.52 1517.37 1506.69 1520.93 Q1504.89 1524.47 1504.89 1531.6 Q1504.89 1538.71 1506.69 1542.27 Q1508.52 1545.82 1512.13 1545.82 Q1515.77 1545.82 1517.57 1542.27 Q1519.4 1538.71 1519.4 1531.6 Q1519.4 1524.47 1517.57 1520.93 Q1515.77 1517.37 1512.13 1517.37 M1512.13 1513.66 Q1517.94 1513.66 1521 1518.27 Q1524.08 1522.85 1524.08 1531.6 Q1524.08 1540.33 1521 1544.94 Q1517.94 1549.52 1512.13 1549.52 Q1506.32 1549.52 1503.25 1544.94 Q1500.19 1540.33 1500.19 1531.6 Q1500.19 1522.85 1503.25 1518.27 Q1506.32 1513.66 1512.13 1513.66 Z" fill="#000000" fill-rule="evenodd" fill-opacity="1" /><path clip-path="url(#clip530)" d="M1880.64 1518.36 L1868.84 1536.81 L1880.64 1536.81 L1880.64 1518.36 M1879.42 1514.29 L1885.3 1514.29 L1885.3 1536.81 L1890.23 1536.81 L1890.23 1540.7 L1885.3 1540.7 L1885.3 1548.85 L1880.64 1548.85 L1880.64 1540.7 L1865.04 1540.7 L1865.04 1536.19 L1879.42 1514.29 Z" fill="#000000" fill-rule="evenodd" fill-opacity="1" /><path clip-path="url(#clip530)" d="M1907.96 1517.37 Q1904.35 1517.37 1902.52 1520.93 Q1900.71 1524.47 1900.71 1531.6 Q1900.71 1538.71 1902.52 1542.27 Q1904.35 1545.82 1907.96 1545.82 Q1911.59 1545.82 1913.4 1542.27 Q1915.23 1538.71 1915.23 1531.6 Q1915.23 1524.47 1913.4 1520.93 Q1911.59 1517.37 1907.96 1517.37 M1907.96 1513.66 Q1913.77 1513.66 1916.82 1518.27 Q1919.9 1522.85 1919.9 1531.6 Q1919.9 1540.33 1916.82 1544.94 Q1913.77 1549.52 1907.96 1549.52 Q1902.15 1549.52 1899.07 1544.94 Q1896.01 1540.33 1896.01 1531.6 Q1896.01 1522.85 1899.07 1518.27 Q1902.15 1513.66 1907.96 1513.66 Z" fill="#000000" fill-rule="evenodd" fill-opacity="1" /><path clip-path="url(#clip530)" d="M1938.12 1517.37 Q1934.51 1517.37 1932.68 1520.93 Q1930.88 1524.47 1930.88 1531.6 Q1930.88 1538.71 1932.68 1542.27 Q1934.51 1545.82 1938.12 1545.82 Q1941.76 1545.82 1943.56 1542.27 Q1945.39 1538.71 1945.39 1531.6 Q1945.39 1524.47 1943.56 1520.93 Q1941.76 1517.37 1938.12 1517.37 M1938.12 1513.66 Q1943.93 1513.66 1946.99 1518.27 Q1950.07 1522.85 1950.07 1531.6 Q1950.07 1540.33 1946.99 1544.94 Q1943.93 1549.52 1938.12 1549.52 Q1932.31 1549.52 1929.23 1544.94 Q1926.18 1540.33 1926.18 1531.6 Q1926.18 1522.85 1929.23 1518.27 Q1932.31 1513.66 1938.12 1513.66 Z" fill="#000000" fill-rule="evenodd" fill-opacity="1" /><path clip-path="url(#clip530)" d="M2292.51 1514.29 L2310.87 1514.29 L2310.87 1518.22 L2296.79 1518.22 L2296.79 1526.7 Q2297.81 1526.35 2298.83 1526.19 Q2299.85 1526 2300.87 1526 Q2306.65 1526 2310.03 1529.17 Q2313.41 1532.34 2313.41 1537.76 Q2313.41 1543.34 2309.94 1546.44 Q2306.47 1549.52 2300.15 1549.52 Q2297.97 1549.52 2295.71 1549.15 Q2293.46 1548.78 2291.05 1548.04 L2291.05 1543.34 Q2293.14 1544.47 2295.36 1545.03 Q2297.58 1545.58 2300.06 1545.58 Q2304.06 1545.58 2306.4 1543.48 Q2308.74 1541.37 2308.74 1537.76 Q2308.74 1534.15 2306.4 1532.04 Q2304.06 1529.94 2300.06 1529.94 Q2298.18 1529.94 2296.31 1530.35 Q2294.46 1530.77 2292.51 1531.65 L2292.51 1514.29 Z" fill="#000000" fill-rule="evenodd" fill-opacity="1" /><path clip-path="url(#clip530)" d="M2332.63 1517.37 Q2329.02 1517.37 2327.19 1520.93 Q2325.38 1524.47 2325.38 1531.6 Q2325.38 1538.71 2327.19 1542.27 Q2329.02 1545.82 2332.63 1545.82 Q2336.26 1545.82 2338.07 1542.27 Q2339.89 1538.71 2339.89 1531.6 Q2339.89 1524.47 2338.07 1520.93 Q2336.26 1517.37 2332.63 1517.37 M2332.63 1513.66 Q2338.44 1513.66 2341.49 1518.27 Q2344.57 1522.85 2344.57 1531.6 Q2344.57 1540.33 2341.49 1544.94 Q2338.44 1549.52 2332.63 1549.52 Q2326.82 1549.52 2323.74 1544.94 Q2320.68 1540.33 2320.68 1531.6 Q2320.68 1522.85 2323.74 1518.27 Q2326.82 1513.66 2332.63 1513.66 Z" fill="#000000" fill-rule="evenodd" fill-opacity="1" /><path clip-path="url(#clip530)" d="M2362.79 1517.37 Q2359.18 1517.37 2357.35 1520.93 Q2355.54 1524.47 2355.54 1531.6 Q2355.54 1538.71 2357.35 1542.27 Q2359.18 1545.82 2362.79 1545.82 Q2366.42 1545.82 2368.23 1542.27 Q2370.06 1538.71 2370.06 1531.6 Q2370.06 1524.47 2368.23 1520.93 Q2366.42 1517.37 2362.79 1517.37 M2362.79 1513.66 Q2368.6 1513.66 2371.65 1518.27 Q2374.73 1522.85 2374.73 1531.6 Q2374.73 1540.33 2371.65 1544.94 Q2368.6 1549.52 2362.79 1549.52 Q2356.98 1549.52 2353.9 1544.94 Q2350.84 1540.33 2350.84 1531.6 Q2350.84 1522.85 2353.9 1518.27 Q2356.98 1513.66 2362.79 1513.66 Z" fill="#000000" fill-rule="evenodd" fill-opacity="1" /><polyline clip-path="url(#clip532)" style="stroke:#000000; stroke-linecap:butt; stroke-linejoin:round; stroke-width:2; stroke-opacity:0.1; fill:none" points="
  148.057,1307.29 2352.76,1307.29 
  "/>
<polyline clip-path="url(#clip532)" style="stroke:#000000; stroke-linecap:butt; stroke-linejoin:round; stroke-width:2; stroke-opacity:0.1; fill:none" points="
  148.057,1112.25 2352.76,1112.25 
  "/>
<polyline clip-path="url(#clip532)" style="stroke:#000000; stroke-linecap:butt; stroke-linejoin:round; stroke-width:2; stroke-opacity:0.1; fill:none" points="
  148.057,917.218 2352.76,917.218 
  "/>
<polyline clip-path="url(#clip532)" style="stroke:#000000; stroke-linecap:butt; stroke-linejoin:round; stroke-width:2; stroke-opacity:0.1; fill:none" points="
  148.057,722.183 2352.76,722.183 
  "/>
<polyline clip-path="url(#clip532)" style="stroke:#000000; stroke-linecap:butt; stroke-linejoin:round; stroke-width:2; stroke-opacity:0.1; fill:none" points="
  148.057,527.148 2352.76,527.148 
  "/>
<polyline clip-path="url(#clip532)" style="stroke:#000000; stroke-linecap:butt; stroke-linejoin:round; stroke-width:2; stroke-opacity:0.1; fill:none" points="
  148.057,332.113 2352.76,332.113 
  "/>
<polyline clip-path="url(#clip532)" style="stroke:#000000; stroke-linecap:butt; stroke-linejoin:round; stroke-width:2; stroke-opacity:0.1; fill:none" points="
  148.057,137.078 2352.76,137.078 
  "/>
<polyline clip-path="url(#clip530)" style="stroke:#000000; stroke-linecap:butt; stroke-linejoin:round; stroke-width:4; stroke-opacity:1; fill:none" points="
  148.057,1486.45 148.057,47.2441 
  "/>
<polyline clip-path="url(#clip530)" style="stroke:#000000; stroke-linecap:butt; stroke-linejoin:round; stroke-width:4; stroke-opacity:1; fill:none" points="
  148.057,1307.29 166.954,1307.29 
  "/>
<polyline clip-path="url(#clip530)" style="stroke:#000000; stroke-linecap:butt; stroke-linejoin:round; stroke-width:4; stroke-opacity:1; fill:none" points="
  148.057,1112.25 166.954,1112.25 
  "/>
<polyline clip-path="url(#clip530)" style="stroke:#000000; stroke-linecap:butt; stroke-linejoin:round; stroke-width:4; stroke-opacity:1; fill:none" points="
  148.057,917.218 166.954,917.218 
  "/>
<polyline clip-path="url(#clip530)" style="stroke:#000000; stroke-linecap:butt; stroke-linejoin:round; stroke-width:4; stroke-opacity:1; fill:none" points="
  148.057,722.183 166.954,722.183 
  "/>
<polyline clip-path="url(#clip530)" style="stroke:#000000; stroke-linecap:butt; stroke-linejoin:round; stroke-width:4; stroke-opacity:1; fill:none" points="
  148.057,527.148 166.954,527.148 
  "/>
<polyline clip-path="url(#clip530)" style="stroke:#000000; stroke-linecap:butt; stroke-linejoin:round; stroke-width:4; stroke-opacity:1; fill:none" points="
  148.057,332.113 166.954,332.113 
  "/>
<polyline clip-path="url(#clip530)" style="stroke:#000000; stroke-linecap:butt; stroke-linejoin:round; stroke-width:4; stroke-opacity:1; fill:none" points="
  148.057,137.078 166.954,137.078 
  "/>
<path clip-path="url(#clip530)" d="M50.9921 1307.74 L80.6679 1307.74 L80.6679 1311.67 L50.9921 1311.67 L50.9921 1307.74 Z" fill="#000000" fill-rule="evenodd" fill-opacity="1" /><path clip-path="url(#clip530)" d="M104.927 1305.93 Q108.283 1306.65 110.158 1308.92 Q112.057 1311.19 112.057 1314.52 Q112.057 1319.64 108.538 1322.44 Q105.02 1325.24 98.5382 1325.24 Q96.3623 1325.24 94.0475 1324.8 Q91.7558 1324.38 89.3021 1323.53 L89.3021 1319.01 Q91.2465 1320.15 93.5613 1320.73 Q95.8761 1321.3 98.3993 1321.3 Q102.797 1321.3 105.089 1319.57 Q107.404 1317.83 107.404 1314.52 Q107.404 1311.47 105.251 1309.75 Q103.121 1308.02 99.3021 1308.02 L95.2743 1308.02 L95.2743 1304.17 L99.4872 1304.17 Q102.936 1304.17 104.765 1302.81 Q106.594 1301.42 106.594 1298.83 Q106.594 1296.17 104.696 1294.75 Q102.821 1293.32 99.3021 1293.32 Q97.3808 1293.32 95.1817 1293.73 Q92.9826 1294.15 90.3438 1295.03 L90.3438 1290.86 Q93.0058 1290.12 95.3206 1289.75 Q97.6585 1289.38 99.7187 1289.38 Q105.043 1289.38 108.145 1291.81 Q111.246 1294.22 111.246 1298.34 Q111.246 1301.21 109.603 1303.2 Q107.959 1305.17 104.927 1305.93 Z" fill="#000000" fill-rule="evenodd" fill-opacity="1" /><path clip-path="url(#clip530)" d="M51.9412 1112.7 L81.617 1112.7 L81.617 1116.64 L51.9412 1116.64 L51.9412 1112.7 Z" fill="#000000" fill-rule="evenodd" fill-opacity="1" /><path clip-path="url(#clip530)" d="M95.7373 1125.6 L112.057 1125.6 L112.057 1129.53 L90.1123 1129.53 L90.1123 1125.6 Q92.7743 1122.84 97.3576 1118.21 Q101.964 1113.56 103.145 1112.22 Q105.39 1109.69 106.27 1107.96 Q107.172 1106.2 107.172 1104.51 Q107.172 1101.76 105.228 1100.02 Q103.307 1098.28 100.205 1098.28 Q98.0058 1098.28 95.5521 1099.05 Q93.1215 1099.81 90.3438 1101.36 L90.3438 1096.64 Q93.1678 1095.51 95.6215 1094.93 Q98.0752 1094.35 100.112 1094.35 Q105.483 1094.35 108.677 1097.03 Q111.871 1099.72 111.871 1104.21 Q111.871 1106.34 111.061 1108.26 Q110.274 1110.16 108.168 1112.75 Q107.589 1113.42 104.487 1116.64 Q101.385 1119.83 95.7373 1125.6 Z" fill="#000000" fill-rule="evenodd" fill-opacity="1" /><path clip-path="url(#clip530)" d="M51.5708 917.669 L81.2466 917.669 L81.2466 921.604 L51.5708 921.604 L51.5708 917.669 Z" fill="#000000" fill-rule="evenodd" fill-opacity="1" /><path clip-path="url(#clip530)" d="M92.1493 930.563 L99.7882 930.563 L99.7882 904.197 L91.478 905.864 L91.478 901.604 L99.7419 899.938 L104.418 899.938 L104.418 930.563 L112.057 930.563 L112.057 934.498 L92.1493 934.498 L92.1493 930.563 Z" fill="#000000" fill-rule="evenodd" fill-opacity="1" /><path clip-path="url(#clip530)" d="M100.112 707.981 Q96.5011 707.981 94.6724 711.546 Q92.8669 715.088 92.8669 722.217 Q92.8669 729.324 94.6724 732.889 Q96.5011 736.43 100.112 736.43 Q103.746 736.43 105.552 732.889 Q107.381 729.324 107.381 722.217 Q107.381 715.088 105.552 711.546 Q103.746 707.981 100.112 707.981 M100.112 704.278 Q105.922 704.278 108.978 708.884 Q112.057 713.468 112.057 722.217 Q112.057 730.944 108.978 735.551 Q105.922 740.134 100.112 740.134 Q94.3021 740.134 91.2234 735.551 Q88.1679 730.944 88.1679 722.217 Q88.1679 713.468 91.2234 708.884 Q94.3021 704.278 100.112 704.278 Z" fill="#000000" fill-rule="evenodd" fill-opacity="1" /><path clip-path="url(#clip530)" d="M92.1493 540.493 L99.7882 540.493 L99.7882 514.127 L91.478 515.794 L91.478 511.534 L99.7419 509.868 L104.418 509.868 L104.418 540.493 L112.057 540.493 L112.057 544.428 L92.1493 544.428 L92.1493 540.493 Z" fill="#000000" fill-rule="evenodd" fill-opacity="1" /><path clip-path="url(#clip530)" d="M95.7373 345.458 L112.057 345.458 L112.057 349.393 L90.1123 349.393 L90.1123 345.458 Q92.7743 342.703 97.3576 338.073 Q101.964 333.421 103.145 332.078 Q105.39 329.555 106.27 327.819 Q107.172 326.059 107.172 324.37 Q107.172 321.615 105.228 319.879 Q103.307 318.143 100.205 318.143 Q98.0058 318.143 95.5521 318.907 Q93.1215 319.671 90.3438 321.222 L90.3438 316.499 Q93.1678 315.365 95.6215 314.786 Q98.0752 314.208 100.112 314.208 Q105.483 314.208 108.677 316.893 Q111.871 319.578 111.871 324.069 Q111.871 326.198 111.061 328.12 Q110.274 330.018 108.168 332.61 Q107.589 333.282 104.487 336.499 Q101.385 339.694 95.7373 345.458 Z" fill="#000000" fill-rule="evenodd" fill-opacity="1" /><path clip-path="url(#clip530)" d="M104.927 135.723 Q108.283 136.441 110.158 138.71 Q112.057 140.978 112.057 144.311 Q112.057 149.427 108.538 152.228 Q105.02 155.029 98.5382 155.029 Q96.3623 155.029 94.0475 154.589 Q91.7558 154.172 89.3021 153.316 L89.3021 148.802 Q91.2465 149.936 93.5613 150.515 Q95.8761 151.094 98.3993 151.094 Q102.797 151.094 105.089 149.358 Q107.404 147.622 107.404 144.311 Q107.404 141.256 105.251 139.543 Q103.121 137.807 99.3021 137.807 L95.2743 137.807 L95.2743 133.964 L99.4872 133.964 Q102.936 133.964 104.765 132.598 Q106.594 131.21 106.594 128.617 Q106.594 125.955 104.696 124.543 Q102.821 123.108 99.3021 123.108 Q97.3808 123.108 95.1817 123.524 Q92.9826 123.941 90.3438 124.821 L90.3438 120.654 Q93.0058 119.913 95.3206 119.543 Q97.6585 119.173 99.7187 119.173 Q105.043 119.173 108.145 121.603 Q111.246 124.011 111.246 128.131 Q111.246 131.001 109.603 132.992 Q107.959 134.96 104.927 135.723 Z" fill="#000000" fill-rule="evenodd" fill-opacity="1" /><polyline clip-path="url(#clip532)" style="stroke:#000000; stroke-linecap:butt; stroke-linejoin:round; stroke-width:4; stroke-opacity:1; fill:none" points="
  210.454,675.553 214.707,580.611 218.961,496.855 223.214,523.876 227.467,930.44 231.721,678.158 235.974,602.086 240.227,257.093 244.481,512.264 248.734,602.884 
  252.988,887.25 257.241,253.346 261.494,353.348 265.748,690.705 270.001,691.74 274.255,655.177 278.508,166.109 282.761,310.937 287.015,546.113 291.268,321.082 
  295.521,667.194 299.775,396.957 304.028,649.5 308.282,840.101 312.535,602.285 316.788,858.661 321.042,984.309 325.295,655.263 329.549,675.564 333.802,479.129 
  338.055,330.442 342.309,376.651 346.562,621.642 350.815,358.071 355.069,580.548 359.322,644.225 363.576,921.539 367.829,626.001 372.082,756.197 376.336,449.81 
  380.589,736.397 384.843,811.058 389.096,402.128 393.349,761.153 397.603,643.991 401.856,674.257 406.109,622.19 410.363,851.457 414.616,891.206 418.87,660.93 
  423.123,264.973 427.376,575.472 431.63,583.348 435.883,371.909 440.137,495.239 444.39,513.94 448.643,738.879 452.897,590.038 457.15,684.128 461.403,769.418 
  465.657,1030.96 469.91,1105.29 474.164,1191.13 478.417,1404.52 482.67,1030.25 486.924,779.554 491.177,740.388 495.431,950.049 499.684,701.867 503.937,616.592 
  508.191,312.364 512.444,731.232 516.697,432.394 520.951,636.309 525.204,710.585 529.458,895.599 533.711,944.712 537.964,1004.25 542.218,879.32 546.471,1165.76 
  550.725,1247.32 554.978,1109.12 559.231,1014 563.485,729.232 567.738,733.889 571.991,747.8 576.245,779.645 580.498,705.163 584.752,564.622 589.005,710.869 
  593.258,780.321 597.512,627.001 601.765,426.861 606.019,565.247 610.272,909.954 614.525,753.529 618.779,964.319 623.032,461.673 627.285,520.808 631.539,534.777 
  635.792,850.089 640.046,617.191 644.299,553.172 648.552,622.065 652.806,838.641 657.059,475.067 661.313,556.211 665.566,409.764 669.819,374.085 674.073,344.384 
  678.326,593.069 682.579,921.134 686.833,951.618 691.086,744.533 695.34,582.377 699.593,792.018 703.846,944.151 708.1,709.566 712.353,910.604 716.607,712.198 
  720.86,570.494 725.113,724.587 729.367,872.608 733.62,919.923 737.873,558.546 742.127,666.594 746.38,600.883 750.634,704.86 754.887,303.638 759.14,488.696 
  763.394,739.531 767.647,514.979 771.901,197.613 776.154,496.354 780.407,566.922 784.661,608.66 788.914,592.283 793.167,1126.88 797.421,636.489 801.674,554.913 
  805.928,693.538 810.181,724.499 814.434,1010.08 818.688,597.594 822.941,780.383 827.195,407.289 831.448,533.728 835.701,657.401 839.955,293.54 844.208,563.447 
  848.461,751.231 852.715,692.89 856.968,629.033 861.222,702.153 865.475,1008.77 869.728,844.098 873.982,869.528 878.235,555.218 882.489,582.826 886.742,682.42 
  890.995,593.171 895.249,560.132 899.502,453.051 903.755,606.16 908.009,555.821 912.262,559.847 916.516,1141.66 920.769,793.406 925.022,956.816 929.276,315.424 
  933.529,543.541 937.783,310.781 942.036,574.535 946.289,766.628 950.543,357.871 954.796,564.619 959.049,577.209 963.303,786.425 967.556,1035.49 971.81,817.511 
  976.063,489.66 980.316,586.524 984.57,855.885 988.823,977.663 993.077,1039.55 997.33,551.02 1001.58,800.476 1005.84,680.323 1010.09,751.69 1014.34,774.126 
  1018.6,914.652 1022.85,780.253 1027.1,763.5 1031.36,900.625 1035.61,649.108 1039.86,684.349 1044.12,822.502 1048.37,579.814 1052.62,883.993 1056.88,745.546 
  1061.13,777.581 1065.38,786.45 1069.64,858.858 1073.89,988.279 1078.14,709.78 1082.4,917.306 1086.65,477.209 1090.9,830.932 1095.16,865.407 1099.41,651.313 
  1103.66,615.082 1107.92,728.073 1112.17,807.416 1116.42,583.754 1120.68,776.833 1124.93,677.685 1129.18,633.442 1133.44,419.778 1137.69,886.772 1141.94,843.067 
  1146.2,962.642 1150.45,830.857 1154.71,410.698 1158.96,705.908 1163.21,857.882 1167.47,833.72 1171.72,952.42 1175.97,1053.12 1180.23,851.049 1184.48,947.131 
  1188.73,923.445 1192.99,961.66 1197.24,626.518 1201.49,672.832 1205.75,596.68 1210,800.45 1214.25,700.663 1218.51,458.063 1222.76,680.411 1227.01,729.566 
  1231.27,688.608 1235.52,1019.52 1239.77,627.537 1244.03,737.303 1248.28,770.921 1252.53,730.874 1256.79,847.644 1261.04,251.981 1265.29,641.698 1269.55,396.918 
  1273.8,716.614 1278.05,955.105 1282.31,1020.67 1286.56,1080.06 1290.81,1138.82 1295.07,1060.25 1299.32,663.308 1303.57,671.125 1307.83,425.792 1312.08,627.097 
  1316.33,627.499 1320.59,669.057 1324.84,500.599 1329.09,335.521 1333.35,174.161 1337.6,602.003 1341.85,624.789 1346.11,531.792 1350.36,263.876 1354.61,677.17 
  1358.87,902.002 1363.12,1020.45 1367.37,731.56 1371.63,833.019 1375.88,793.245 1380.13,519.693 1384.39,220.428 1388.64,913.714 1392.89,748.287 1397.15,709.17 
  1401.4,835.718 1405.65,670.814 1409.91,610.389 1414.16,363.661 1418.41,573.423 1422.67,754.646 1426.92,624.567 1431.18,486.04 1435.43,838.22 1439.68,593.703 
  1443.94,478.639 1448.19,615.64 1452.44,566.22 1456.7,742.534 1460.95,891.2 1465.2,838.002 1469.46,906.848 1473.71,608.271 1477.96,530.128 1482.22,483.83 
  1486.47,558.067 1490.72,353.342 1494.98,717.422 1499.23,736.998 1503.48,708.114 1507.74,753.066 1511.99,886.299 1516.24,902.943 1520.5,640.184 1524.75,638.381 
  1529,677.944 1533.26,801.8 1537.51,704.693 1541.76,640.744 1546.02,416.066 1550.27,554.551 1554.52,1055.95 1558.78,1001.5 1563.03,918.602 1567.28,866.506 
  1571.54,928.535 1575.79,944.329 1580.04,629.015 1584.3,513.151 1588.55,703.819 1592.8,1056.94 1597.06,916.755 1601.31,764.768 1605.56,1153.35 1609.82,791.842 
  1614.07,440.93 1618.32,584.03 1622.58,608.16 1626.83,919.504 1631.08,684.326 1635.34,625.728 1639.59,658.707 1643.84,899.055 1648.1,538.077 1652.35,799.305 
  1656.6,676.601 1660.86,585.911 1665.11,603.081 1669.36,528.302 1673.62,817.365 1677.87,696.116 1682.12,426.222 1686.38,438.558 1690.63,911.002 1694.88,943.465 
  1699.14,678.227 1703.39,768.161 1707.65,699.449 1711.9,889.566 1716.15,702.346 1720.41,389.251 1724.66,753.162 1728.91,546.508 1733.17,221.977 1737.42,502.092 
  1741.67,548.48 1745.93,422.098 1750.18,1032.43 1754.43,875.186 1758.69,746.51 1762.94,539.02 1767.19,272.618 1771.45,277.727 1775.7,321.483 1779.95,743.143 
  1784.21,943.185 1788.46,944.386 1792.71,620.929 1796.97,917.764 1801.22,857.868 1805.47,1001.59 1809.73,771.292 1813.98,705.305 1818.23,753.627 1822.49,691.587 
  1826.74,436.996 1830.99,860.428 1835.25,894.313 1839.5,852.86 1843.75,689.704 1848.01,656.678 1852.26,113.759 1856.51,255.794 1860.77,736.698 1865.02,874.766 
  1869.27,321.73 1873.53,467.305 1877.78,578.67 1882.03,460.643 1886.29,522.343 1890.54,1020.88 1894.79,826.992 1899.05,988.703 1903.3,910.505 1907.55,714.707 
  1911.81,593.152 1916.06,176.768 1920.31,333.49 1924.57,591.299 1928.82,829.782 1933.07,457.681 1937.33,1103.05 1941.58,634.715 1945.83,200.538 1950.09,200.748 
  1954.34,483.214 1958.59,624.094 1962.85,709.135 1967.1,272.5 1971.35,242.052 1975.61,493.806 1979.86,743.349 1984.12,323.627 1988.37,748.604 1992.62,746.53 
  1996.88,729.11 2001.13,841.643 2005.38,920.763 2009.64,535.21 2013.89,388.617 2018.14,690.453 2022.4,873.41 2026.65,787.841 2030.9,1155.58 2035.16,949.03 
  2039.41,771.078 2043.66,668.312 2047.92,890.392 2052.17,817.829 2056.42,788.378 2060.68,490.165 2064.93,730.826 2069.18,448.997 2073.44,685.483 2077.69,779.747 
  2081.94,713.238 2086.2,887.201 2090.45,903.647 2094.7,963.652 2098.96,923.504 2103.21,1187.27 2107.46,1024.71 2111.72,982.676 2115.97,1073.94 2120.22,1034.81 
  2124.48,697.41 2128.73,600.762 2132.98,964.734 2137.24,1020.26 2141.49,508.951 2145.74,353.066 2150,677.861 2154.25,668.678 2158.5,465.742 2162.76,537.704 
  2167.01,744.401 2171.26,581.741 2175.52,613.708 2179.77,895.396 2184.02,846.441 2188.28,872.644 2192.53,494.669 2196.78,880.896 2201.04,733.333 2205.29,460.149 
  2209.54,520.944 2213.8,730.98 2218.05,722.936 2222.3,650.325 2226.56,636.694 2230.81,399.972 2235.06,614.115 2239.32,1057.59 2243.57,977.494 2247.82,831.904 
  2252.08,714.143 2256.33,351.937 2260.59,211.14 2264.84,177.576 2269.09,483.552 2273.35,626.277 2277.6,810.336 2281.85,499.348 2286.11,515.199 2290.36,563.398 
  
  "/>
<polyline clip-path="url(#clip532)" style="stroke:#ff0000; stroke-linecap:butt; stroke-linejoin:round; stroke-width:4; stroke-opacity:1; fill:none" points="
  210.454,729.92 214.707,676.244 218.961,639.338 223.214,609.447 227.467,624.591 231.721,780.756 235.974,672.346 240.227,649.674 244.481,510.092 248.734,629.322 
  252.988,653.118 257.241,762.588 261.494,505.254 265.748,566.396 270.001,695.623 274.255,680.24 278.508,669.703 282.761,480.714 287.015,551.179 291.268,636.465 
  295.521,535.218 299.775,689.794 304.028,559.223 308.282,678.263 312.535,740.604 316.788,644.784 321.042,752.931 325.295,793.896 329.549,664.666 333.802,681.607 
  338.055,597.823 342.309,544.237 346.562,565.297 350.815,666.341 355.069,546.524 359.322,652.928 363.576,666.688 367.829,772.36 372.082,651.268 376.336,711.626 
  380.589,583.902 384.843,713.492 389.096,727.201 393.349,563.566 397.603,724.12 401.856,663.728 406.109,681.578 410.363,659.698 414.616,748.663 418.87,757.91 
  423.123,666.776 427.376,516.358 431.63,653.385 435.883,644.729 440.137,557.129 444.39,617.272 448.643,615.143 452.897,711.811 457.15,637.931 461.403,686.754 
  465.657,711.845 469.91,819.196 474.164,919.245 478.417,1056.41 482.67,1027.63 486.924,897.478 491.177,718.048 495.431,709.497 499.684,782.147 503.937,683.907 
  508.191,654.338 512.444,535.764 516.697,716.857 520.951,573.089 525.204,672.715 529.458,690.492 533.711,758.498 537.964,775.833 542.218,808.315 546.471,747.978 
  550.725,986.259 554.978,1056.89 559.231,1032.62 563.485,871.346 567.738,699.615 571.991,703.146 576.245,702.435 580.498,717.79 584.752,684.838 589.005,632.992 
  593.258,695.254 597.512,717.88 601.765,652.868 606.019,577.718 610.272,647.166 614.525,767.463 618.779,698.778 623.032,786.116 627.285,588.18 631.539,627.592 
  635.792,624.795 640.046,751.35 644.299,646.908 648.552,631.941 652.806,660.381 657.059,742.968 661.313,589.498 665.566,640.238 669.819,570.58 674.073,565.651 
  678.326,555.288 682.579,653.556 686.833,774.458 691.086,782.491 695.34,695.884 699.593,640.256 703.846,728.278 708.1,777.861 712.353,688.448 716.607,767.31 
  720.86,686.889 725.113,636.918 729.367,702.488 733.62,752.949 737.873,767.819 742.127,626.407 746.38,681.338 750.634,645.735 754.887,697.705 759.14,526.297 
  763.394,617.959 767.647,707.46 771.901,611.249 776.154,492.708 780.407,622.814 784.661,633.715 788.914,657.688 793.167,649.137 797.421,897.219 801.674,661.675 
  805.928,639.199 810.181,691.277 814.434,695.918 818.688,805.54 822.941,639.568 827.195,720.653 831.448,565.803 835.701,633.133 839.955,674.838 844.208,524.274 
  848.461,647.418 852.715,705.94 856.968,679.435 861.222,660.989 865.475,693.138 869.728,811.271 873.982,736.379 878.235,748.704 882.489,625.913 886.742,648.318 
  890.995,682.8 895.249,646.191 899.502,634.762 903.755,594.359 908.009,660.185 912.262,630.959 916.516,636.41 920.769,911.667 925.022,719.594 929.276,790.828 
  933.529,527.873 937.783,643.037 942.036,535.034 946.289,652.678 950.543,711.188 954.796,548.442 959.049,651.881 963.303,639.397 967.556,720.927 971.81,820.152 
  976.063,728.487 980.316,603.505 984.57,653.545 988.823,752.682 993.077,790.09 997.33,832.631 1001.58,628.184 1005.84,735.645 1010.09,676.574 1014.34,708.661 
  1018.6,712.154 1022.85,765.052 1027.1,715.555 1031.36,710.907 1035.61,760.142 1039.86,661.879 1044.12,686.681 1048.37,736.432 1052.62,634.346 1056.88,762.434 
  1061.13,701.178 1065.38,718.677 1069.64,722.996 1073.89,745.795 1078.14,801.886 1082.4,683.915 1086.65,773.051 1090.9,591.198 1095.16,744.211 1099.41,745.878 
  1103.66,663.734 1107.92,656.257 1112.17,702.607 1116.42,731.961 1120.68,638.132 1124.93,722.023 1129.18,678.25 1133.44,662.209 1137.69,572.393 1141.94,764.135 
  1146.2,737.345 1150.45,786.528 1154.71,734.658 1158.96,571.356 1163.21,704.12 1167.47,749.541 1171.72,732.388 1175.97,782.538 1180.23,840.629 1184.48,740.028 
  1188.73,779.742 1192.99,770.992 1197.24,788.304 1201.49,654.677 1205.75,686.091 1210,644.422 1214.25,729.592 1218.51,682.778 1222.76,591.308 1227.01,689.744 
  1231.27,698.413 1235.52,679.333 1239.77,813.693 1244.03,648.498 1248.28,705.722 1252.53,709.445 1256.79,697.271 1261.04,747.748 1265.29,508.622 1269.55,683.571 
  1273.8,559.323 1278.05,706.419 1282.31,782.472 1286.56,819.421 1290.81,883.304 1295.07,1001.07 1299.32,931.669 1303.57,676.103 1307.83,684.296 1312.08,578.923 
  1316.33,668.942 1320.59,656.791 1324.84,678.28 1329.09,608.033 1333.35,545.553 1337.6,488.341 1341.85,665.879 1346.11,655.293 1350.36,623.628 1354.61,521.824 
  1358.87,691.01 1363.12,761.78 1367.37,817.606 1371.63,693.838 1375.88,738.088 1380.13,719.741 1384.39,613.266 1388.64,503.956 1392.89,782.818 1397.15,694.447 
  1401.4,686.108 1405.65,743.537 1409.91,672.886 1414.16,652.194 1418.41,554.338 1422.67,650.687 1426.92,712.23 1431.18,659.2 1435.43,605.891 1439.68,747.154 
  1443.94,637.17 1448.19,604.096 1452.44,665.345 1456.7,637.717 1460.95,710.514 1465.2,761.262 1469.46,735.787 1473.71,767.391 1477.96,643.601 1482.22,627.215 
  1486.47,604.514 1490.72,638.731 1494.98,551.237 1499.23,706.541 1503.48,698.942 1507.74,693.095 1511.99,707.093 1516.24,755.67 1520.5,760.369 1524.75,659.784 
  1529,664.83 1533.26,677.815 1537.51,729.642 1541.76,684.973 1546.02,666.239 1550.27,576.583 1554.52,642.289 1558.78,831.67 1563.03,809.04 1567.28,765.737 
  1571.54,747.643 1575.79,773.526 1580.04,778.374 1584.3,649.923 1588.55,616.397 1592.8,696.816 1597.06,832.642 1601.31,769.844 1605.56,708.162 1609.82,955.847 
  1614.07,726.759 1618.32,585.426 1622.58,655.188 1626.83,653.173 1631.08,771.08 1635.34,671.263 1639.59,660.326 1643.84,676.526 1648.1,765.521 1652.35,614.3 
  1656.6,732.871 1660.86,676.155 1665.11,647.005 1669.36,649.072 1673.62,620.907 1677.87,737.365 1682.12,679.832 1686.38,576.211 1690.63,590.424 1694.88,776.418 
  1699.14,776.164 1703.39,674.033 1707.65,716.424 1711.9,684.105 1716.15,757.826 1720.41,682.226 1724.66,562.828 1728.91,720.317 1733.17,620.213 1737.42,500.651 
  1741.67,624.34 1745.93,632.023 1750.18,579.662 1754.43,822.39 1758.69,748.604 1762.94,704.512 1767.19,620.712 1771.45,522.741 1775.7,531.26 1779.95,544.135 
  1784.21,714.968 1788.46,775.587 1792.71,778.806 1796.97,650.116 1801.22,774.877 1805.47,738.31 1809.73,806.072 1813.98,711.139 1818.23,690.694 1822.49,708.749 
  1826.74,683.093 1830.99,578.824 1835.25,756.255 1839.5,754.144 1843.75,746.174 1848.01,677.62 1852.26,674.521 1856.51,460.368 1860.77,526.045 1865.02,712.68 
  1869.27,746.712 1873.53,530.242 1877.78,607.184 1882.03,646.226 1886.29,592.143 1890.54,621.169 1894.79,814.852 1899.05,726.175 1903.3,799.86 1907.55,763.004 
  1911.81,690.174 1916.06,640.864 1920.31,484.772 1924.57,557.952 1928.82,655.049 1933.07,738.868 1937.33,584.524 1941.58,864.665 1945.83,654.107 1950.09,495.033 
  1954.34,504.299 1958.59,616.524 1962.85,664.605 1967.1,692.125 1971.35,518.462 1975.61,518.627 1979.86,617.392 1984.12,711.271 1988.37,534.705 1992.62,720.85 
  1996.88,702.362 2001.13,698.516 2005.38,739.832 2009.64,768.45 2013.89,614.096 2018.14,565.456 2022.4,696.181 2026.65,753.754 2030.9,713.445 2035.16,957.897 
  2039.41,798.278 2043.66,714.431 2047.92,674.162 2052.17,763.307 2056.42,730.358 2060.68,720.516 2064.93,598.938 2069.18,708.793 2073.44,581.045 2077.69,692.047 
  2081.94,717.119 2086.2,686.438 2090.45,759.343 2094.7,760.182 2098.96,786.601 2103.21,770.257 2107.46,1017.88 2111.72,884.071 2115.97,803.685 2120.22,876.22 
  2124.48,843.177 2128.73,684.296 2132.98,648.766 2137.24,790.082 2141.49,818.023 2145.74,608.197 2150,558.09 2154.25,691.38 2158.5,673.333 2162.76,594.297 
  2167.01,630.087 2171.26,708.807 2175.52,635.11 2179.77,659.819 2184.02,764.877 2188.28,735.619 2192.53,748.982 2196.78,605.274 2201.04,762.341 2205.29,697.517 
  2209.54,590.789 2213.8,627.518 2218.05,705.308 2222.3,693.453 2226.56,667.587 2230.81,664.435 2235.06,570.481 2239.32,665.429 2243.57,835.275 2247.82,792.869 
  2252.08,736.269 2256.33,693.188 2260.59,548.861 2264.84,504.895 2269.09,492.301 2273.35,616.758 2277.6,664.694 2281.85,729.414 2286.11,601.485 2290.36,622.393 
  
  "/>
<polyline clip-path="url(#clip532)" style="stroke:#ff0000; stroke-linecap:butt; stroke-linejoin:round; stroke-width:4; stroke-opacity:1; fill:none" stroke-dasharray="2, 4" points="
  210.454,344.088 214.707,290.52 218.961,253.564 223.214,227.375 227.467,247.219 231.721,405.366 235.974,283.636 240.227,269.561 244.481,127.896 248.734,246.163 
  252.988,274.494 257.241,372.174 261.494,121.728 265.748,173.468 270.001,312.439 274.255,303.535 278.508,289.342 282.761,89.3007 287.015,167.937 291.268,252.053 
  295.521,152.651 299.775,312.599 304.028,181.468 308.282,293.426 312.535,355.648 316.788,258.667 321.042,365.284 325.295,408.996 329.549,278.104 333.802,310.898 
  338.055,225.461 342.309,158.376 346.562,191.062 350.815,283.007 355.069,175.437 359.322,271.305 363.576,283.604 367.829,393.144 372.082,274.901 376.336,331.292 
  380.589,199.897 384.843,331.063 389.096,347.281 393.349,179.299 397.603,341.068 401.856,286.188 406.109,301.424 410.363,281.244 414.616,364.872 418.87,375.472 
  423.123,288.619 427.376,147.304 431.63,280.642 435.883,260.778 440.137,182.365 444.39,235.191 448.643,229.055 452.897,332.136 457.15,253.01 461.403,301.375 
  465.657,332.4 469.91,439.272 474.164,526.682 478.417,669.172 482.67,639.088 486.924,513.261 491.177,339.152 495.431,331.521 499.684,401.078 503.937,301.637 
  508.191,269.841 512.444,156.707 516.697,331.024 520.951,193.606 525.204,289.303 529.458,323.363 533.711,372.588 537.964,397.982 542.218,421.555 546.471,369.168 
  550.725,603.837 554.978,681.481 559.231,649.385 563.485,489.428 567.738,318.625 571.991,324.02 576.245,320.631 580.498,333.339 584.752,308.303 589.005,259.66 
  593.258,313.763 597.512,345.038 601.765,269.137 606.019,194.673 610.272,260.294 614.525,383.474 618.779,321.552 623.032,399.587 627.285,213.516 631.539,244.866 
  635.792,251.319 640.046,378.046 644.299,263.077 648.552,250.218 652.806,278.625 657.059,360.309 661.313,213.575 665.566,263.929 669.819,186.599 674.073,193.118 
  678.326,170.363 682.579,269.376 686.833,395.263 691.086,404.588 695.34,315.28 699.593,254.408 703.846,349.354 708.1,392.217 712.353,307.665 716.607,377.816 
  720.86,297.455 725.113,257.147 729.367,322.699 733.62,370.724 737.873,392.769 742.127,245.057 746.38,293.169 750.634,263.016 754.887,316.549 759.14,150.754 
  763.394,233.173 767.647,329.619 771.901,229.141 776.154,110.868 780.407,237.549 784.661,251.666 788.914,280.907 793.167,268.109 797.421,514.303 801.674,277.43 
  805.928,259.016 810.181,309.169 814.434,317.555 818.688,428.75 822.941,259.287 827.195,338.514 831.448,184.945 835.701,252.588 839.955,278.964 844.208,139.019 
  848.461,276.518 852.715,329.287 856.968,295.262 861.222,278.708 865.475,315.309 869.728,434.23 873.982,351.051 878.235,355.496 882.489,242.418 886.742,257.389 
  890.995,294.686 895.249,257.562 899.502,255.767 903.755,217.001 908.009,283.63 912.262,256.013 916.516,253.032 920.769,524.249 925.022,338.498 929.276,408.646 
  933.529,131.612 937.783,263.134 942.036,146.971 946.289,272.91 950.543,331.184 954.796,163.306 959.049,268.035 963.303,258.857 967.556,334.328 971.81,436.201 
  976.063,350.172 980.316,220.409 984.57,261.439 988.823,376.198 993.077,405.373 997.33,453.974 1001.58,239.594 1005.84,350.935 1010.09,290.193 1014.34,325.668 
  1018.6,337.981 1022.85,379.304 1027.1,339.043 1031.36,326.247 1035.61,373.913 1039.86,288.643 1044.12,313.843 1048.37,350.72 1052.62,259.272 1056.88,382.764 
  1061.13,320.889 1065.38,337.092 1069.64,337.959 1073.89,365.503 1078.14,418.455 1082.4,295.564 1086.65,387.46 1090.9,206.988 1095.16,356.607 1099.41,368.519 
  1103.66,288.676 1107.92,269.643 1112.17,314.607 1116.42,356.803 1120.68,255.077 1124.93,344.655 1129.18,298.21 1133.44,273.943 1137.69,184.912 1141.94,376.518 
  1146.2,354.983 1150.45,401.337 1154.71,356.176 1158.96,193.462 1163.21,316.243 1167.47,372.97 1171.72,352.737 1175.97,410.139 1180.23,451.896 1184.48,359.118 
  1188.73,397.527 1192.99,389.47 1197.24,407.489 1201.49,280.628 1205.75,297.83 1210,255.061 1214.25,348.82 1218.51,303.283 1222.76,206.699 1227.01,306.768 
  1231.27,325.279 1235.52,298.078 1239.77,434.899 1244.03,270.093 1248.28,326.419 1252.53,322.591 1256.79,315.323 1261.04,360.267 1265.29,129.952 1269.55,307.137 
  1273.8,175.508 1278.05,322.881 1282.31,399.364 1286.56,437.596 1290.81,498.716 1295.07,621.022 1299.32,553.277 1303.57,295.983 1307.83,299.689 1312.08,189.451 
  1316.33,286.462 1320.59,286.42 1324.84,298.554 1329.09,219.869 1333.35,153.917 1337.6,108.176 1341.85,284.773 1346.11,274.589 1350.36,241.971 1354.61,136.717 
  1358.87,307.885 1363.12,383.729 1367.37,427.502 1371.63,318.24 1375.88,357.19 1380.13,340.642 1384.39,223.4 1388.64,121.8 1392.89,411.367 1397.15,307.33 
  1401.4,310.626 1405.65,357.63 1409.91,283.816 1414.16,271.576 1418.41,176.048 1422.67,273.238 1426.92,330.337 1431.18,282.602 1435.43,227.018 1439.68,363.259 
  1443.94,257.39 1448.19,218.749 1452.44,290.109 1456.7,258.244 1460.95,329.396 1465.2,379.235 1469.46,357.178 1473.71,392.408 1477.96,273.814 1482.22,248.477 
  1486.47,222.584 1490.72,260.685 1494.98,182.462 1499.23,320.548 1503.48,320.783 1507.74,313.025 1511.99,324.25 1516.24,368.95 1520.5,377.661 1524.75,277.405 
  1529,277.117 1533.26,294.89 1537.51,352.488 1541.76,313.917 1546.02,297.575 1550.27,186.757 1554.52,270.45 1558.78,447.228 1563.03,430.869 1567.28,376.348 
  1571.54,373.602 1575.79,377.185 1580.04,394.781 1584.3,261.496 1588.55,226.543 1592.8,322.554 1597.06,450.246 1601.31,382.789 1605.56,327.101 1609.82,574.105 
  1614.07,345.519 1618.32,209.171 1622.58,265.935 1626.83,273.505 1631.08,382.691 1635.34,283.943 1639.59,276.375 1643.84,294.412 1648.1,385.695 1652.35,234.071 
  1656.6,359.421 1660.86,297.6 1665.11,265.181 1669.36,274.894 1673.62,231.077 1677.87,357.21 1682.12,308.014 1686.38,199.555 1690.63,214.051 1694.88,399.206 
  1699.14,390.692 1703.39,294.939 1707.65,336.112 1711.9,299.291 1716.15,384.281 1720.41,293.989 1724.66,172.814 1728.91,348.794 1733.17,233.986 1737.42,127.192 
  1741.67,242.488 1745.93,243.003 1750.18,192.214 1754.43,441.394 1758.69,361.488 1762.94,312.969 1767.19,238.218 1771.45,136.765 1775.7,151.069 1779.95,170.245 
  1784.21,336.374 1788.46,393.97 1792.71,394.353 1796.97,268.879 1801.22,400.367 1805.47,363.989 1809.73,425.166 1813.98,329.042 1818.23,303.429 1822.49,332.835 
  1826.74,305.136 1830.99,196.66 1835.25,378.199 1839.5,372.653 1843.75,361.246 1848.01,295.439 1852.26,298.358 1856.51,87.9763 1860.77,136.506 1865.02,334.984 
  1869.27,369.346 1873.53,151.166 1877.78,226.812 1882.03,257.952 1886.29,203.804 1890.54,236.1 1894.79,431.055 1899.05,347.732 1903.3,417.167 1907.55,378.556 
  1911.81,307.769 1916.06,256.223 1920.31,102.038 1924.57,177.832 1928.82,278.627 1933.07,363.942 1937.33,200.23 1941.58,482.447 1945.83,273.895 1950.09,112.083 
  1954.34,128.26 1958.59,235.936 1962.85,287.637 1967.1,307.417 1971.35,137.128 1975.61,140.247 1979.86,234.284 1984.12,332.018 1988.37,149.446 1992.62,343.887 
  1996.88,317.327 2001.13,318.04 2005.38,359.645 2009.64,386.079 2013.89,229.139 2018.14,186.698 2022.4,321.498 2026.65,366.138 2030.9,331.975 2035.16,578.631 
  2039.41,410.208 2043.66,333.042 2047.92,289.544 2052.17,378.2 2056.42,355.976 2060.68,341.399 2064.93,219.694 2069.18,327.065 2073.44,200.105 2077.69,311.445 
  2081.94,327.926 2086.2,312.264 2090.45,376.461 2094.7,375.359 2098.96,407.706 2103.21,389.415 2107.46,628.19 2111.72,505.083 2115.97,418.877 2120.22,493.475 
  2124.48,456.927 2128.73,302.926 2132.98,258.95 2137.24,399.997 2141.49,437.568 2145.74,229.806 2150,174.817 2154.25,310.792 2158.5,295.469 2162.76,217.647 
  2167.01,243.699 2171.26,328.68 2175.52,247.522 2179.77,278.968 2184.02,391.338 2188.28,358.522 2192.53,371.054 2196.78,218.184 2201.04,376.385 2205.29,310.946 
  2209.54,214.491 2213.8,251.404 2218.05,315.029 2222.3,308.307 2226.56,288.676 2230.81,287.834 2235.06,188.429 2239.32,276.925 2243.57,460.215 2247.82,411.349 
  2252.08,363.138 2256.33,311.111 2260.59,177.294 2264.84,132.744 2269.09,109.509 2273.35,228.938 2277.6,283.05 2281.85,340.968 2286.11,236.05 2290.36,237.837 
  
  "/>
<polyline clip-path="url(#clip532)" style="stroke:#ff0000; stroke-linecap:butt; stroke-linejoin:round; stroke-width:4; stroke-opacity:1; fill:none" stroke-dasharray="2, 4" points="
  210.454,1103.26 214.707,1060.48 218.961,1017.08 223.214,992.299 227.467,1004.4 231.721,1162.67 235.974,1058.06 240.227,1035.32 244.481,887.891 248.734,1011.99 
  252.988,1031.87 257.241,1146.85 261.494,887.708 265.748,948.786 270.001,1078.55 274.255,1068.76 278.508,1052.56 282.761,864.725 287.015,928.984 291.268,1014.61 
  295.521,919.807 299.775,1062.08 304.028,939.819 308.282,1056.91 312.535,1124.85 316.788,1026.47 321.042,1139.83 325.295,1176.39 329.549,1050.84 333.802,1058.44 
  338.055,976.347 342.309,918.498 346.562,942.213 350.815,1050.64 355.069,924.796 359.322,1035.59 363.576,1043.89 367.829,1155.28 372.082,1028.24 376.336,1098.77 
  380.589,967.522 384.843,1092.39 389.096,1110.77 393.349,948.713 397.603,1107.57 401.856,1045.38 406.109,1064.73 410.363,1051.96 414.616,1133.56 418.87,1134.15 
  423.123,1049.92 427.376,899.257 431.63,1027.96 435.883,1028.17 440.137,933.992 444.39,1001.69 448.643,999.398 452.897,1088.15 457.15,1023.81 461.403,1077.98 
  465.657,1091.94 469.91,1206.08 474.164,1300.79 478.417,1445.72 482.67,1407.13 486.924,1278.11 491.177,1098.84 495.431,1103.2 499.684,1169.75 503.937,1064.48 
  508.191,1037.42 512.444,913.872 516.697,1098.61 520.951,956.108 525.204,1060.61 529.458,1066.55 533.711,1152.34 537.964,1160.87 542.218,1191.61 546.471,1128.48 
  550.725,1369.73 554.978,1441.68 559.231,1418.62 563.485,1253.33 567.738,1085.47 571.991,1075.95 576.245,1082.13 580.498,1112.99 584.752,1061.04 589.005,1008.82 
  593.258,1072.37 597.512,1093.48 601.765,1048.48 606.019,963.568 610.272,1021.32 614.525,1141.67 618.779,1083.63 623.032,1174.26 627.285,971.262 631.539,1014.16 
  635.792,1009.47 640.046,1135.04 644.299,1037.32 648.552,1017.82 652.806,1039.49 657.059,1123.66 661.313,971.786 665.566,1021.13 669.819,951.824 674.073,949.93 
  678.326,935.855 682.579,1033.56 686.833,1155.12 691.086,1165.38 695.34,1070.53 699.593,1016.41 703.846,1115.2 708.1,1153.35 712.353,1061.59 716.607,1151.24 
  720.86,1073.89 725.113,1017.72 729.367,1086.68 733.62,1138.52 737.873,1144.3 742.127,1016.89 746.38,1064.41 750.634,1028.16 754.887,1087.21 759.14,912.05 
  763.394,1002 767.647,1096.37 771.901,990.464 776.154,872.024 780.407,1003.79 784.661,1018.7 788.914,1036.42 793.167,1030.89 797.421,1288.2 801.674,1038.57 
  805.928,1020.99 810.181,1067.97 814.434,1081.88 818.688,1187.23 822.941,1020.63 827.195,1099.07 831.448,948.085 835.701,1011.22 839.955,1059.4 844.208,904.003 
  848.461,1026.47 852.715,1089.41 856.968,1068.5 861.222,1034.91 865.475,1078.69 869.728,1189.17 873.982,1120.96 878.235,1131.23 882.489,1005.62 886.742,1031.25 
  890.995,1056.98 895.249,1033.19 899.502,1011.11 903.755,983.246 908.009,1039.05 912.262,1016.66 916.516,1017.81 920.769,1298.88 925.022,1090.49 929.276,1171.7 
  933.529,914.602 937.783,1015.35 942.036,915.708 946.289,1038.14 950.543,1099.96 954.796,928.492 959.049,1037.6 963.303,1035.2 967.556,1102.33 971.81,1197.63 
  976.063,1115.72 980.316,982.496 984.57,1030.17 988.823,1129.15 993.077,1170.92 997.33,1222.07 1001.58,1011.8 1005.84,1107.32 1010.09,1062.8 1014.34,1090.08 
  1018.6,1086.38 1022.85,1147.34 1027.1,1099.16 1031.36,1092.56 1035.61,1144.5 1039.86,1042.5 1044.12,1074.97 1048.37,1112.39 1052.62,1014.58 1056.88,1142.56 
  1061.13,1084.09 1065.38,1093.84 1069.64,1103.61 1073.89,1128.61 1078.14,1186.45 1082.4,1068.96 1086.65,1163.4 1090.9,967.831 1095.16,1131.59 1099.41,1126.2 
  1103.66,1050.33 1107.92,1042.51 1112.17,1091.58 1116.42,1109.33 1120.68,1022.23 1124.93,1104.22 1129.18,1057.17 1133.44,1044.94 1137.69,956.254 1141.94,1143.15 
  1146.2,1116.74 1150.45,1169.65 1154.71,1114.25 1158.96,959.859 1163.21,1093.68 1167.47,1127.86 1171.72,1117.71 1175.97,1161.89 1180.23,1225.23 1184.48,1117.41 
  1188.73,1163.41 1192.99,1146.1 1197.24,1169.59 1201.49,1041.23 1205.75,1073.43 1210,1020.5 1214.25,1111.61 1218.51,1066.81 1222.76,978.203 1227.01,1068.11 
  1231.27,1080.04 1235.52,1060.54 1239.77,1194.2 1244.03,1033.74 1248.28,1088.22 1252.53,1095.66 1256.79,1074.5 1261.04,1131.7 1265.29,885.436 1269.55,1063.92 
  1273.8,935.191 1278.05,1090.11 1282.31,1173.23 1286.56,1193.29 1290.81,1262.65 1295.07,1384.11 1299.32,1315.36 1303.57,1050.42 1307.83,1072.58 1312.08,968.4 
  1316.33,1048.05 1320.59,1028.38 1324.84,1053.3 1329.09,993.038 1333.35,922.828 1337.6,869.04 1341.85,1047.8 1346.11,1028.75 1350.36,1001.11 1354.61,906.906 
  1358.87,1070.91 1363.12,1143.72 1367.37,1198 1371.63,1077.92 1375.88,1112.35 1380.13,1107.79 1384.39,1007.37 1388.64,884.605 1392.89,1160.66 1397.15,1082.24 
  1401.4,1059.72 1405.65,1119.19 1409.91,1052.99 1414.16,1040.6 1418.41,939.889 1422.67,1032.28 1426.92,1095.45 1431.18,1038.43 1435.43,987.078 1439.68,1127.57 
  1443.94,1018.17 1448.19,989.782 1452.44,1048.09 1456.7,1018.96 1460.95,1089.58 1465.2,1140.31 1469.46,1123.23 1473.71,1150.06 1477.96,1023.85 1482.22,1008.98 
  1486.47,980.987 1490.72,1019.15 1494.98,920.773 1499.23,1079.76 1503.48,1083.63 1507.74,1077.58 1511.99,1088.56 1516.24,1149.86 1520.5,1144.58 1524.75,1033.78 
  1529,1046.47 1533.26,1053.12 1537.51,1113.61 1541.76,1065.73 1546.02,1042.17 1550.27,971.613 1554.52,1023.46 1558.78,1221.04 1563.03,1190.83 1567.28,1151.88 
  1571.54,1128.22 1575.79,1153.69 1580.04,1158.98 1584.3,1044.06 1588.55,998.068 1592.8,1077.18 1597.06,1221.04 1601.31,1155.5 1605.56,1087.79 1609.82,1338.7 
  1614.07,1108.25 1618.32,966.686 1622.58,1032.22 1626.83,1033.13 1631.08,1152.38 1635.34,1048.52 1639.59,1046.4 1643.84,1063.41 1648.1,1142.1 1652.35,986.107 
  1656.6,1120.39 1660.86,1067.62 1665.11,1021.59 1669.36,1027.84 1673.62,1007.4 1677.87,1122.83 1682.12,1052.99 1686.38,959.755 1690.63,971.705 1694.88,1156.7 
  1699.14,1156.65 1703.39,1062.47 1707.65,1091.89 1711.9,1063.44 1716.15,1140.29 1720.41,1059.99 1724.66,950.354 1728.91,1097.95 1733.17,1004.11 1737.42,878.676 
  1741.67,1002.94 1745.93,1023.9 1750.18,961.758 1754.43,1204.27 1758.69,1129.72 1762.94,1082.45 1767.19,1002.13 1771.45,906.12 1775.7,913.874 1779.95,928.575 
  1784.21,1093.69 1788.46,1151.53 1792.71,1158.47 1796.97,1032.07 1801.22,1153.8 1805.47,1118.77 1809.73,1183.88 1813.98,1091.48 1818.23,1069.33 1822.49,1092.6 
  1826.74,1059.94 1830.99,957.18 1835.25,1128.09 1839.5,1130.56 1843.75,1123.07 1848.01,1061.12 1852.26,1053.05 1856.51,832.82 1860.77,909.715 1865.02,1092 
  1869.27,1129.38 1873.53,903.755 1877.78,986.947 1882.03,1034.55 1886.29,963.551 1890.54,1004.62 1894.79,1194.55 1899.05,1111.81 1903.3,1184.27 1907.55,1140.42 
  1911.81,1065.28 1916.06,1025.72 1920.31,865.234 1924.57,936.209 1928.82,1036.85 1933.07,1120.04 1937.33,957.863 1941.58,1242 1945.83,1039.47 1950.09,882.078 
  1954.34,885.593 1958.59,997.951 1962.85,1036.66 1967.1,1077.19 1971.35,902.921 1975.61,902.987 1979.86,993.081 1984.12,1098.76 1988.37,917.867 1992.62,1107.77 
  1996.88,1081.84 2001.13,1079.65 2005.38,1121.14 2009.64,1151.09 2013.89,999.885 2018.14,948.516 2022.4,1077.31 2026.65,1141.86 2030.9,1097.95 2035.16,1345.05 
  2039.41,1174.66 2043.66,1086.74 2047.92,1053.34 2052.17,1150.91 2056.42,1112.27 2060.68,1099.95 2064.93,980.988 2069.18,1092.28 2073.44,961.932 2077.69,1063.51 
  2081.94,1091.67 2086.2,1075.29 2090.45,1138.33 2094.7,1141.85 2098.96,1165.66 2103.21,1151.64 2107.46,1394.21 2111.72,1275.22 2115.97,1189.65 2120.22,1259.05 
  2124.48,1226.14 2128.73,1067.02 2132.98,1038.43 2137.24,1178.89 2141.49,1197.39 2145.74,991.165 2150,938.98 2154.25,1064.83 2158.5,1055.5 2162.76,976.491 
  2167.01,1008.14 2171.26,1091.31 2175.52,1020.03 2179.77,1039.99 2184.02,1140.77 2188.28,1116.98 2192.53,1127.17 2196.78,993.316 2201.04,1146.74 2205.29,1088.98 
  2209.54,963.771 2213.8,1013.92 2218.05,1089.75 2222.3,1076.89 2226.56,1039.65 2230.81,1052.13 2235.06,945.857 2239.32,1047.63 2243.57,1216.48 2247.82,1175.25 
  2252.08,1124.35 2256.33,1072.8 2260.59,932.244 2264.84,888.974 2269.09,871.639 2273.35,1003.93 2277.6,1045.55 2281.85,1117.9 2286.11,976.956 2290.36,1012.51 
  
  "/>
<path clip-path="url(#clip530)" d="
M1813.19 354.418 L2279.27 354.418 L2279.27 95.2176 L1813.19 95.2176  Z
  " fill="#ffffff" fill-rule="evenodd" fill-opacity="1"/>
<polyline clip-path="url(#clip530)" style="stroke:#000000; stroke-linecap:butt; stroke-linejoin:round; stroke-width:4; stroke-opacity:1; fill:none" points="
  1813.19,354.418 2279.27,354.418 2279.27,95.2176 1813.19,95.2176 1813.19,354.418 
  "/>
<polyline clip-path="url(#clip530)" style="stroke:#000000; stroke-linecap:butt; stroke-linejoin:round; stroke-width:4; stroke-opacity:1; fill:none" points="
  1837.69,147.058 1984.67,147.058 
  "/>
<path clip-path="url(#clip530)" d="M2025.18 132.949 Q2020.09 132.949 2017.08 136.745 Q2014.09 140.541 2014.09 147.092 Q2014.09 153.62 2017.08 157.416 Q2020.09 161.213 2025.18 161.213 Q2030.27 161.213 2033.24 157.416 Q2036.22 153.62 2036.22 147.092 Q2036.22 140.541 2033.24 136.745 Q2030.27 132.949 2025.18 132.949 M2025.18 129.153 Q2032.45 129.153 2036.8 134.037 Q2041.15 138.898 2041.15 147.092 Q2041.15 155.264 2036.8 160.148 Q2032.45 165.009 2025.18 165.009 Q2017.89 165.009 2013.51 160.148 Q2009.16 155.287 2009.16 147.092 Q2009.16 138.898 2013.51 134.037 Q2017.89 129.153 2025.18 129.153 Z" fill="#000000" fill-rule="evenodd" fill-opacity="1" /><path clip-path="url(#clip530)" d="M2066.89 151.398 Q2066.89 146.699 2064.95 144.037 Q2063.03 141.352 2059.65 141.352 Q2056.27 141.352 2054.32 144.037 Q2052.4 146.699 2052.4 151.398 Q2052.4 156.097 2054.32 158.782 Q2056.27 161.444 2059.65 161.444 Q2063.03 161.444 2064.95 158.782 Q2066.89 156.097 2066.89 151.398 M2052.4 142.347 Q2053.75 140.032 2055.78 138.921 Q2057.84 137.787 2060.69 137.787 Q2065.41 137.787 2068.35 141.537 Q2071.32 145.287 2071.32 151.398 Q2071.32 157.509 2068.35 161.259 Q2065.41 165.009 2060.69 165.009 Q2057.84 165.009 2055.78 163.898 Q2053.75 162.763 2052.4 160.449 L2052.4 164.338 L2048.12 164.338 L2048.12 128.319 L2052.4 128.319 L2052.4 142.347 Z" fill="#000000" fill-rule="evenodd" fill-opacity="1" /><path clip-path="url(#clip530)" d="M2094.9 139.176 L2094.9 143.203 Q2093.1 142.277 2091.15 141.815 Q2089.21 141.352 2087.13 141.352 Q2083.95 141.352 2082.36 142.324 Q2080.78 143.296 2080.78 145.24 Q2080.78 146.722 2081.92 147.578 Q2083.05 148.412 2086.48 149.176 L2087.94 149.5 Q2092.47 150.472 2094.37 152.254 Q2096.29 154.014 2096.29 157.185 Q2096.29 160.796 2093.42 162.902 Q2090.57 165.009 2085.57 165.009 Q2083.49 165.009 2081.22 164.592 Q2078.98 164.199 2076.48 163.388 L2076.48 158.99 Q2078.84 160.217 2081.13 160.842 Q2083.42 161.444 2085.67 161.444 Q2088.68 161.444 2090.3 160.426 Q2091.92 159.384 2091.92 157.509 Q2091.92 155.773 2090.74 154.847 Q2089.58 153.921 2085.62 153.064 L2084.14 152.717 Q2080.18 151.884 2078.42 150.171 Q2076.66 148.435 2076.66 145.426 Q2076.66 141.768 2079.25 139.778 Q2081.85 137.787 2086.62 137.787 Q2088.98 137.787 2091.06 138.134 Q2093.14 138.481 2094.9 139.176 Z" fill="#000000" fill-rule="evenodd" fill-opacity="1" /><path clip-path="url(#clip530)" d="M2125.25 150.31 L2125.25 152.393 L2105.67 152.393 Q2105.94 156.791 2108.31 159.106 Q2110.69 161.398 2114.93 161.398 Q2117.38 161.398 2119.67 160.796 Q2121.99 160.194 2124.25 158.99 L2124.25 163.018 Q2121.96 163.99 2119.56 164.5 Q2117.15 165.009 2114.67 165.009 Q2108.47 165.009 2104.83 161.398 Q2101.22 157.787 2101.22 151.629 Q2101.22 145.264 2104.65 141.537 Q2108.1 137.787 2113.93 137.787 Q2119.16 137.787 2122.19 141.166 Q2125.25 144.523 2125.25 150.31 M2120.99 149.06 Q2120.94 145.565 2119.02 143.481 Q2117.13 141.398 2113.98 141.398 Q2110.41 141.398 2108.26 143.412 Q2106.13 145.426 2105.81 149.083 L2120.99 149.06 Z" fill="#000000" fill-rule="evenodd" fill-opacity="1" /><path clip-path="url(#clip530)" d="M2147.26 142.393 Q2146.55 141.977 2145.69 141.791 Q2144.86 141.583 2143.84 141.583 Q2140.23 141.583 2138.28 143.944 Q2136.36 146.282 2136.36 150.68 L2136.36 164.338 L2132.08 164.338 L2132.08 138.412 L2136.36 138.412 L2136.36 142.44 Q2137.7 140.078 2139.86 138.944 Q2142.01 137.787 2145.09 137.787 Q2145.53 137.787 2146.06 137.856 Q2146.59 137.903 2147.24 138.018 L2147.26 142.393 Z" fill="#000000" fill-rule="evenodd" fill-opacity="1" /><path clip-path="url(#clip530)" d="M2148.68 138.412 L2153.19 138.412 L2161.29 160.171 L2169.39 138.412 L2173.91 138.412 L2164.19 164.338 L2158.4 164.338 L2148.68 138.412 Z" fill="#000000" fill-rule="evenodd" fill-opacity="1" /><path clip-path="url(#clip530)" d="M2201.96 150.31 L2201.96 152.393 L2182.38 152.393 Q2182.66 156.791 2185.02 159.106 Q2187.4 161.398 2191.64 161.398 Q2194.09 161.398 2196.38 160.796 Q2198.7 160.194 2200.97 158.99 L2200.97 163.018 Q2198.68 163.99 2196.27 164.5 Q2193.86 165.009 2191.38 165.009 Q2185.18 165.009 2181.55 161.398 Q2177.93 157.787 2177.93 151.629 Q2177.93 145.264 2181.36 141.537 Q2184.81 137.787 2190.64 137.787 Q2195.87 137.787 2198.91 141.166 Q2201.96 144.523 2201.96 150.31 M2197.7 149.06 Q2197.66 145.565 2195.74 143.481 Q2193.84 141.398 2190.69 141.398 Q2187.12 141.398 2184.97 143.412 Q2182.84 145.426 2182.52 149.083 L2197.7 149.06 Z" fill="#000000" fill-rule="evenodd" fill-opacity="1" /><path clip-path="url(#clip530)" d="M2226.01 142.347 L2226.01 128.319 L2230.27 128.319 L2230.27 164.338 L2226.01 164.338 L2226.01 160.449 Q2224.67 162.763 2222.61 163.898 Q2220.57 165.009 2217.7 165.009 Q2213 165.009 2210.04 161.259 Q2207.1 157.509 2207.1 151.398 Q2207.1 145.287 2210.04 141.537 Q2213 137.787 2217.7 137.787 Q2220.57 137.787 2222.61 138.921 Q2224.67 140.032 2226.01 142.347 M2211.5 151.398 Q2211.5 156.097 2213.42 158.782 Q2215.37 161.444 2218.74 161.444 Q2222.12 161.444 2224.07 158.782 Q2226.01 156.097 2226.01 151.398 Q2226.01 146.699 2224.07 144.037 Q2222.12 141.352 2218.74 141.352 Q2215.37 141.352 2213.42 144.037 Q2211.5 146.699 2211.5 151.398 Z" fill="#000000" fill-rule="evenodd" fill-opacity="1" /><polyline clip-path="url(#clip530)" style="stroke:#ff0000; stroke-linecap:butt; stroke-linejoin:round; stroke-width:4; stroke-opacity:1; fill:none" points="
  1837.69,198.898 1984.67,198.898 
  "/>
<path clip-path="url(#clip530)" d="M2013.84 185.46 L2013.84 198.446 L2019.72 198.446 Q2022.98 198.446 2024.76 196.756 Q2026.55 195.067 2026.55 191.942 Q2026.55 188.84 2024.76 187.15 Q2022.98 185.46 2019.72 185.46 L2013.84 185.46 M2009.16 181.618 L2019.72 181.618 Q2025.53 181.618 2028.49 184.256 Q2031.48 186.872 2031.48 191.942 Q2031.48 197.057 2028.49 199.673 Q2025.53 202.289 2019.72 202.289 L2013.84 202.289 L2013.84 216.178 L2009.16 216.178 L2009.16 181.618 Z" fill="#000000" fill-rule="evenodd" fill-opacity="1" /><path clip-path="url(#clip530)" d="M2042.43 185.46 L2042.43 198.446 L2048.31 198.446 Q2051.57 198.446 2053.35 196.756 Q2055.13 195.067 2055.13 191.942 Q2055.13 188.84 2053.35 187.15 Q2051.57 185.46 2048.31 185.46 L2042.43 185.46 M2037.75 181.618 L2048.31 181.618 Q2054.12 181.618 2057.08 184.256 Q2060.07 186.872 2060.07 191.942 Q2060.07 197.057 2057.08 199.673 Q2054.12 202.289 2048.31 202.289 L2042.43 202.289 L2042.43 216.178 L2037.75 216.178 L2037.75 181.618 Z" fill="#000000" fill-rule="evenodd" fill-opacity="1" /><path clip-path="url(#clip530)" d="M2081.41 181.618 L2088.38 181.618 L2097.19 205.136 L2106.06 181.618 L2113.03 181.618 L2113.03 216.178 L2108.47 216.178 L2108.47 185.83 L2099.56 209.534 L2094.86 209.534 L2085.94 185.83 L2085.94 216.178 L2081.41 216.178 L2081.41 181.618 Z" fill="#000000" fill-rule="evenodd" fill-opacity="1" /><path clip-path="url(#clip530)" d="M2144.3 202.15 L2144.3 204.233 L2124.72 204.233 Q2125 208.631 2127.36 210.946 Q2129.74 213.238 2133.98 213.238 Q2136.43 213.238 2138.72 212.636 Q2141.04 212.034 2143.31 210.83 L2143.31 214.858 Q2141.01 215.83 2138.61 216.34 Q2136.2 216.849 2133.72 216.849 Q2127.52 216.849 2123.88 213.238 Q2120.27 209.627 2120.27 203.469 Q2120.27 197.104 2123.7 193.377 Q2127.15 189.627 2132.98 189.627 Q2138.21 189.627 2141.25 193.006 Q2144.3 196.363 2144.3 202.15 M2140.04 200.9 Q2140 197.405 2138.07 195.321 Q2136.18 193.238 2133.03 193.238 Q2129.46 193.238 2127.31 195.252 Q2125.18 197.266 2124.86 200.923 L2140.04 200.9 Z" fill="#000000" fill-rule="evenodd" fill-opacity="1" /><path clip-path="url(#clip530)" d="M2163.07 203.145 Q2157.91 203.145 2155.92 204.326 Q2153.93 205.506 2153.93 208.354 Q2153.93 210.622 2155.41 211.965 Q2156.92 213.284 2159.49 213.284 Q2163.03 213.284 2165.16 210.784 Q2167.31 208.261 2167.31 204.094 L2167.31 203.145 L2163.07 203.145 M2171.57 201.386 L2171.57 216.178 L2167.31 216.178 L2167.31 212.242 Q2165.85 214.603 2163.68 215.738 Q2161.5 216.849 2158.35 216.849 Q2154.37 216.849 2152.01 214.627 Q2149.67 212.381 2149.67 208.631 Q2149.67 204.256 2152.59 202.034 Q2155.53 199.812 2161.34 199.812 L2167.31 199.812 L2167.31 199.395 Q2167.31 196.455 2165.37 194.858 Q2163.44 193.238 2159.95 193.238 Q2157.73 193.238 2155.62 193.77 Q2153.51 194.303 2151.57 195.367 L2151.57 191.432 Q2153.91 190.53 2156.11 190.09 Q2158.31 189.627 2160.39 189.627 Q2166.01 189.627 2168.79 192.543 Q2171.57 195.46 2171.57 201.386 Z" fill="#000000" fill-rule="evenodd" fill-opacity="1" /><path clip-path="url(#clip530)" d="M2201.89 200.529 L2201.89 216.178 L2197.63 216.178 L2197.63 200.668 Q2197.63 196.988 2196.2 195.159 Q2194.76 193.33 2191.89 193.33 Q2188.44 193.33 2186.45 195.53 Q2184.46 197.729 2184.46 201.525 L2184.46 216.178 L2180.18 216.178 L2180.18 190.252 L2184.46 190.252 L2184.46 194.28 Q2185.99 191.942 2188.05 190.784 Q2190.13 189.627 2192.84 189.627 Q2197.31 189.627 2199.6 192.405 Q2201.89 195.159 2201.89 200.529 Z" fill="#000000" fill-rule="evenodd" fill-opacity="1" /><polyline clip-path="url(#clip530)" style="stroke:#ff0000; stroke-linecap:butt; stroke-linejoin:round; stroke-width:4; stroke-opacity:1; fill:none" stroke-dasharray="2, 4" points="
  1837.69,250.738 1984.67,250.738 
  "/>
<path clip-path="url(#clip530)" d="M2023.01 270.425 Q2021.2 275.055 2019.49 276.467 Q2017.77 277.879 2014.9 277.879 L2011.5 277.879 L2011.5 274.314 L2014 274.314 Q2015.76 274.314 2016.73 273.48 Q2017.7 272.647 2018.88 269.545 L2019.65 267.601 L2009.16 242.092 L2013.68 242.092 L2021.78 262.369 L2029.88 242.092 L2034.39 242.092 L2023.01 270.425 Z" fill="#000000" fill-rule="evenodd" fill-opacity="1" /><path clip-path="url(#clip530)" d="M2055.04 249.383 Q2058.4 250.101 2060.27 252.369 Q2062.17 254.638 2062.17 257.971 Q2062.17 263.087 2058.65 265.888 Q2055.13 268.689 2048.65 268.689 Q2046.48 268.689 2044.16 268.249 Q2041.87 267.832 2039.42 266.976 L2039.42 262.462 Q2041.36 263.596 2043.68 264.175 Q2045.99 264.754 2048.51 264.754 Q2052.91 264.754 2055.2 263.018 Q2057.52 261.281 2057.52 257.971 Q2057.52 254.916 2055.37 253.203 Q2053.24 251.467 2049.42 251.467 L2045.39 251.467 L2045.39 247.624 L2049.6 247.624 Q2053.05 247.624 2054.88 246.258 Q2056.71 244.87 2056.71 242.277 Q2056.71 239.615 2054.81 238.203 Q2052.94 236.768 2049.42 236.768 Q2047.5 236.768 2045.3 237.184 Q2043.1 237.601 2040.46 238.481 L2040.46 234.314 Q2043.12 233.573 2045.44 233.203 Q2047.77 232.833 2049.83 232.833 Q2055.16 232.833 2058.26 235.263 Q2061.36 237.67 2061.36 241.791 Q2061.36 244.661 2059.72 246.652 Q2058.07 248.62 2055.04 249.383 Z" fill="#000000" fill-rule="evenodd" fill-opacity="1" /><polyline clip-path="url(#clip530)" style="stroke:#ff0000; stroke-linecap:butt; stroke-linejoin:round; stroke-width:4; stroke-opacity:1; fill:none" stroke-dasharray="2, 4" points="
  1837.69,302.578 1984.67,302.578 
  "/>
<path clip-path="url(#clip530)" d="M2023.01 322.265 Q2021.2 326.895 2019.49 328.307 Q2017.77 329.719 2014.9 329.719 L2011.5 329.719 L2011.5 326.154 L2014 326.154 Q2015.76 326.154 2016.73 325.32 Q2017.7 324.487 2018.88 321.385 L2019.65 319.441 L2009.16 293.932 L2013.68 293.932 L2021.78 314.209 L2029.88 293.932 L2034.39 293.932 L2023.01 322.265 Z" fill="#000000" fill-rule="evenodd" fill-opacity="1" /><path clip-path="url(#clip530)" d="M2053.72 289.372 L2041.92 307.821 L2053.72 307.821 L2053.72 289.372 M2052.5 285.298 L2058.38 285.298 L2058.38 307.821 L2063.31 307.821 L2063.31 311.709 L2058.38 311.709 L2058.38 319.858 L2053.72 319.858 L2053.72 311.709 L2038.12 311.709 L2038.12 307.196 L2052.5 285.298 Z" fill="#000000" fill-rule="evenodd" fill-opacity="1" /></svg>
