<?xml version="1.0" encoding="utf-8"?>
<svg xmlns="http://www.w3.org/2000/svg" xmlns:xlink="http://www.w3.org/1999/xlink" width="600" height="400" viewBox="0 0 2400 1600">
<defs>
  <clipPath id="clip490">
    <rect x="0" y="0" width="2400" height="1600"/>
  </clipPath>
</defs>
<path clip-path="url(#clip490)" d="
M0 1600 L2400 1600 L2400 0 L0 0  Z
  " fill="#ffffff" fill-rule="evenodd" fill-opacity="1"/>
<defs>
  <clipPath id="clip491">
    <rect x="480" y="0" width="1681" height="1600"/>
  </clipPath>
</defs>
<path clip-path="url(#clip490)" d="
M149.191 1486.45 L2352.76 1486.45 L2352.76 47.2441 L149.191 47.2441  Z
  " fill="#ffffff" fill-rule="evenodd" fill-opacity="1"/>
<defs>
  <clipPath id="clip492">
    <rect x="149" y="47" width="2205" height="1440"/>
  </clipPath>
</defs>
<polyline clip-path="url(#clip492)" style="stroke:#000000; stroke-linecap:butt; stroke-linejoin:round; stroke-width:2; stroke-opacity:0.1; fill:none" points="
  190.558,1486.45 190.558,47.2441 
  "/>
<polyline clip-path="url(#clip492)" style="stroke:#000000; stroke-linecap:butt; stroke-linejoin:round; stroke-width:2; stroke-opacity:0.1; fill:none" points="
  715.516,1486.45 715.516,47.2441 
  "/>
<polyline clip-path="url(#clip492)" style="stroke:#000000; stroke-linecap:butt; stroke-linejoin:round; stroke-width:2; stroke-opacity:0.1; fill:none" points="
  1240.47,1486.45 1240.47,47.2441 
  "/>
<polyline clip-path="url(#clip492)" style="stroke:#000000; stroke-linecap:butt; stroke-linejoin:round; stroke-width:2; stroke-opacity:0.1; fill:none" points="
  1765.43,1486.45 1765.43,47.2441 
  "/>
<polyline clip-path="url(#clip492)" style="stroke:#000000; stroke-linecap:butt; stroke-linejoin:round; stroke-width:2; stroke-opacity:0.1; fill:none" points="
  2290.39,1486.45 2290.39,47.2441 
  "/>
<polyline clip-path="url(#clip490)" style="stroke:#000000; stroke-linecap:butt; stroke-linejoin:round; stroke-width:4; stroke-opacity:1; fill:none" points="
  149.191,1486.45 2352.76,1486.45 
  "/>
<polyline clip-path="url(#clip490)" style="stroke:#000000; stroke-linecap:butt; stroke-linejoin:round; stroke-width:4; stroke-opacity:1; fill:none" points="
  190.558,1486.45 190.558,1467.55 
  "/>
<polyline clip-path="url(#clip490)" style="stroke:#000000; stroke-linecap:butt; stroke-linejoin:round; stroke-width:4; stroke-opacity:1; fill:none" points="
  715.516,1486.45 715.516,1467.55 
  "/>
<polyline clip-path="url(#clip490)" style="stroke:#000000; stroke-linecap:butt; stroke-linejoin:round; stroke-width:4; stroke-opacity:1; fill:none" points="
  1240.47,1486.45 1240.47,1467.55 
  "/>
<polyline clip-path="url(#clip490)" style="stroke:#000000; stroke-linecap:butt; stroke-linejoin:round; stroke-width:4; stroke-opacity:1; fill:none" points="
  1765.43,1486.45 1765.43,1467.55 
  "/>
<polyline clip-path="url(#clip490)" style="stroke:#000000; stroke-linecap:butt; stroke-linejoin:round; stroke-width:4; stroke-opacity:1; fill:none" points="
  2290.39,1486.45 2290.39,1467.55 
  "/>
<path clip-path="url(#clip490)" d="M190.558 1517.37 Q186.946 1517.37 185.118 1520.93 Q183.312 1524.47 183.312 1531.6 Q183.312 1538.71 185.118 1542.27 Q186.946 1545.82 190.558 1545.82 Q194.192 1545.82 195.997 1542.27 Q197.826 1538.71 197.826 1531.6 Q197.826 1524.47 195.997 1520.93 Q194.192 1517.37 190.558 1517.37 M190.558 1513.66 Q196.368 1513.66 199.423 1518.27 Q202.502 1522.85 202.502 1531.6 Q202.502 1540.33 199.423 1544.94 Q196.368 1549.52 190.558 1549.52 Q184.747 1549.52 181.669 1544.94 Q178.613 1540.33 178.613 1531.6 Q178.613 1522.85 181.669 1518.27 Q184.747 1513.66 190.558 1513.66 Z" fill="#000000" fill-rule="evenodd" fill-opacity="1" /><path clip-path="url(#clip490)" d="M694.787 1544.91 L711.106 1544.91 L711.106 1548.85 L689.162 1548.85 L689.162 1544.91 Q691.824 1542.16 696.407 1537.53 Q701.014 1532.88 702.194 1531.53 Q704.44 1529.01 705.319 1527.27 Q706.222 1525.51 706.222 1523.82 Q706.222 1521.07 704.278 1519.33 Q702.356 1517.6 699.254 1517.6 Q697.055 1517.6 694.602 1518.36 Q692.171 1519.13 689.393 1520.68 L689.393 1515.95 Q692.217 1514.82 694.671 1514.24 Q697.125 1513.66 699.162 1513.66 Q704.532 1513.66 707.727 1516.35 Q710.921 1519.03 710.921 1523.52 Q710.921 1525.65 710.111 1527.57 Q709.324 1529.47 707.217 1532.07 Q706.639 1532.74 703.537 1535.95 Q700.435 1539.15 694.787 1544.91 Z" fill="#000000" fill-rule="evenodd" fill-opacity="1" /><path clip-path="url(#clip490)" d="M720.967 1514.29 L739.324 1514.29 L739.324 1518.22 L725.25 1518.22 L725.25 1526.7 Q726.268 1526.35 727.287 1526.19 Q728.305 1526 729.324 1526 Q735.111 1526 738.49 1529.17 Q741.87 1532.34 741.87 1537.76 Q741.87 1543.34 738.398 1546.44 Q734.926 1549.52 728.606 1549.52 Q726.43 1549.52 724.162 1549.15 Q721.916 1548.78 719.509 1548.04 L719.509 1543.34 Q721.592 1544.47 723.814 1545.03 Q726.037 1545.58 728.514 1545.58 Q732.518 1545.58 734.856 1543.48 Q737.194 1541.37 737.194 1537.76 Q737.194 1534.15 734.856 1532.04 Q732.518 1529.94 728.514 1529.94 Q726.639 1529.94 724.764 1530.35 Q722.912 1530.77 720.967 1531.65 L720.967 1514.29 Z" fill="#000000" fill-rule="evenodd" fill-opacity="1" /><path clip-path="url(#clip490)" d="M1215.17 1514.29 L1233.53 1514.29 L1233.53 1518.22 L1219.46 1518.22 L1219.46 1526.7 Q1220.47 1526.35 1221.49 1526.19 Q1222.51 1526 1223.53 1526 Q1229.32 1526 1232.7 1529.17 Q1236.08 1532.34 1236.08 1537.76 Q1236.08 1543.34 1232.6 1546.44 Q1229.13 1549.52 1222.81 1549.52 Q1220.64 1549.52 1218.37 1549.15 Q1216.12 1548.78 1213.72 1548.04 L1213.72 1543.34 Q1215.8 1544.47 1218.02 1545.03 Q1220.24 1545.58 1222.72 1545.58 Q1226.72 1545.58 1229.06 1543.48 Q1231.4 1541.37 1231.4 1537.76 Q1231.4 1534.15 1229.06 1532.04 Q1226.72 1529.94 1222.72 1529.94 Q1220.84 1529.94 1218.97 1530.35 Q1217.12 1530.77 1215.17 1531.65 L1215.17 1514.29 Z" fill="#000000" fill-rule="evenodd" fill-opacity="1" /><path clip-path="url(#clip490)" d="M1255.29 1517.37 Q1251.68 1517.37 1249.85 1520.93 Q1248.04 1524.47 1248.04 1531.6 Q1248.04 1538.71 1249.85 1542.27 Q1251.68 1545.82 1255.29 1545.82 Q1258.92 1545.82 1260.73 1542.27 Q1262.56 1538.71 1262.56 1531.6 Q1262.56 1524.47 1260.73 1520.93 Q1258.92 1517.37 1255.29 1517.37 M1255.29 1513.66 Q1261.1 1513.66 1264.15 1518.27 Q1267.23 1522.85 1267.23 1531.6 Q1267.23 1540.33 1264.15 1544.94 Q1261.1 1549.52 1255.29 1549.52 Q1249.48 1549.52 1246.4 1544.94 Q1243.34 1540.33 1243.34 1531.6 Q1243.34 1522.85 1246.4 1518.27 Q1249.48 1513.66 1255.29 1513.66 Z" fill="#000000" fill-rule="evenodd" fill-opacity="1" /><path clip-path="url(#clip490)" d="M1739.29 1514.29 L1761.51 1514.29 L1761.51 1516.28 L1748.96 1548.85 L1744.08 1548.85 L1755.88 1518.22 L1739.29 1518.22 L1739.29 1514.29 Z" fill="#000000" fill-rule="evenodd" fill-opacity="1" /><path clip-path="url(#clip490)" d="M1770.68 1514.29 L1789.03 1514.29 L1789.03 1518.22 L1774.96 1518.22 L1774.96 1526.7 Q1775.98 1526.35 1776.99 1526.19 Q1778.01 1526 1779.03 1526 Q1784.82 1526 1788.2 1529.17 Q1791.58 1532.34 1791.58 1537.76 Q1791.58 1543.34 1788.11 1546.44 Q1784.63 1549.52 1778.31 1549.52 Q1776.14 1549.52 1773.87 1549.15 Q1771.62 1548.78 1769.22 1548.04 L1769.22 1543.34 Q1771.3 1544.47 1773.52 1545.03 Q1775.74 1545.58 1778.22 1545.58 Q1782.23 1545.58 1784.56 1543.48 Q1786.9 1541.37 1786.9 1537.76 Q1786.9 1534.15 1784.56 1532.04 Q1782.23 1529.94 1778.22 1529.94 Q1776.35 1529.94 1774.47 1530.35 Q1772.62 1530.77 1770.68 1531.65 L1770.68 1514.29 Z" fill="#000000" fill-rule="evenodd" fill-opacity="1" /><path clip-path="url(#clip490)" d="M2250 1544.91 L2257.64 1544.91 L2257.64 1518.55 L2249.33 1520.21 L2249.33 1515.95 L2257.59 1514.29 L2262.27 1514.29 L2262.27 1544.91 L2269.9 1544.91 L2269.9 1548.85 L2250 1548.85 L2250 1544.91 Z" fill="#000000" fill-rule="evenodd" fill-opacity="1" /><path clip-path="url(#clip490)" d="M2289.35 1517.37 Q2285.74 1517.37 2283.91 1520.93 Q2282.1 1524.47 2282.1 1531.6 Q2282.1 1538.71 2283.91 1542.27 Q2285.74 1545.82 2289.35 1545.82 Q2292.98 1545.82 2294.79 1542.27 Q2296.62 1538.71 2296.62 1531.6 Q2296.62 1524.47 2294.79 1520.93 Q2292.98 1517.37 2289.35 1517.37 M2289.35 1513.66 Q2295.16 1513.66 2298.21 1518.27 Q2301.29 1522.85 2301.29 1531.6 Q2301.29 1540.33 2298.21 1544.94 Q2295.16 1549.52 2289.35 1549.52 Q2283.54 1549.52 2280.46 1544.94 Q2277.4 1540.33 2277.4 1531.6 Q2277.4 1522.85 2280.46 1518.27 Q2283.54 1513.66 2289.35 1513.66 Z" fill="#000000" fill-rule="evenodd" fill-opacity="1" /><path clip-path="url(#clip490)" d="M2319.51 1517.37 Q2315.9 1517.37 2314.07 1520.93 Q2312.27 1524.47 2312.27 1531.6 Q2312.27 1538.71 2314.07 1542.27 Q2315.9 1545.82 2319.51 1545.82 Q2323.15 1545.82 2324.95 1542.27 Q2326.78 1538.71 2326.78 1531.6 Q2326.78 1524.47 2324.95 1520.93 Q2323.15 1517.37 2319.51 1517.37 M2319.51 1513.66 Q2325.32 1513.66 2328.38 1518.27 Q2331.46 1522.85 2331.46 1531.6 Q2331.46 1540.33 2328.38 1544.94 Q2325.32 1549.52 2319.51 1549.52 Q2313.7 1549.52 2310.62 1544.94 Q2307.57 1540.33 2307.57 1531.6 Q2307.57 1522.85 2310.62 1518.27 Q2313.7 1513.66 2319.51 1513.66 Z" fill="#000000" fill-rule="evenodd" fill-opacity="1" /><polyline clip-path="url(#clip492)" style="stroke:#000000; stroke-linecap:butt; stroke-linejoin:round; stroke-width:2; stroke-opacity:0.1; fill:none" points="
  149.191,1368.37 2352.76,1368.37 
  "/>
<polyline clip-path="url(#clip492)" style="stroke:#000000; stroke-linecap:butt; stroke-linejoin:round; stroke-width:2; stroke-opacity:0.1; fill:none" points="
  149.191,1073.1 2352.76,1073.1 
  "/>
<polyline clip-path="url(#clip492)" style="stroke:#000000; stroke-linecap:butt; stroke-linejoin:round; stroke-width:2; stroke-opacity:0.1; fill:none" points="
  149.191,777.826 2352.76,777.826 
  "/>
<polyline clip-path="url(#clip492)" style="stroke:#000000; stroke-linecap:butt; stroke-linejoin:round; stroke-width:2; stroke-opacity:0.1; fill:none" points="
  149.191,482.554 2352.76,482.554 
  "/>
<polyline clip-path="url(#clip492)" style="stroke:#000000; stroke-linecap:butt; stroke-linejoin:round; stroke-width:2; stroke-opacity:0.1; fill:none" points="
  149.191,187.282 2352.76,187.282 
  "/>
<polyline clip-path="url(#clip490)" style="stroke:#000000; stroke-linecap:butt; stroke-linejoin:round; stroke-width:4; stroke-opacity:1; fill:none" points="
  149.191,1486.45 149.191,47.2441 
  "/>
<polyline clip-path="url(#clip490)" style="stroke:#000000; stroke-linecap:butt; stroke-linejoin:round; stroke-width:4; stroke-opacity:1; fill:none" points="
  149.191,1368.37 168.089,1368.37 
  "/>
<polyline clip-path="url(#clip490)" style="stroke:#000000; stroke-linecap:butt; stroke-linejoin:round; stroke-width:4; stroke-opacity:1; fill:none" points="
  149.191,1073.1 168.089,1073.1 
  "/>
<polyline clip-path="url(#clip490)" style="stroke:#000000; stroke-linecap:butt; stroke-linejoin:round; stroke-width:4; stroke-opacity:1; fill:none" points="
  149.191,777.826 168.089,777.826 
  "/>
<polyline clip-path="url(#clip490)" style="stroke:#000000; stroke-linecap:butt; stroke-linejoin:round; stroke-width:4; stroke-opacity:1; fill:none" points="
  149.191,482.554 168.089,482.554 
  "/>
<polyline clip-path="url(#clip490)" style="stroke:#000000; stroke-linecap:butt; stroke-linejoin:round; stroke-width:4; stroke-opacity:1; fill:none" points="
  149.191,187.282 168.089,187.282 
  "/>
<path clip-path="url(#clip490)" d="M50.9921 1368.82 L80.6679 1368.82 L80.6679 1372.76 L50.9921 1372.76 L50.9921 1368.82 Z" fill="#000000" fill-rule="evenodd" fill-opacity="1" /><path clip-path="url(#clip490)" d="M103.608 1355.16 L91.8021 1373.61 L103.608 1373.61 L103.608 1355.16 M102.381 1351.09 L108.26 1351.09 L108.26 1373.61 L113.191 1373.61 L113.191 1377.5 L108.26 1377.5 L108.26 1385.65 L103.608 1385.65 L103.608 1377.5 L88.0058 1377.5 L88.0058 1372.99 L102.381 1351.09 Z" fill="#000000" fill-rule="evenodd" fill-opacity="1" /><path clip-path="url(#clip490)" d="M53.0754 1073.55 L82.7512 1073.55 L82.7512 1077.48 L53.0754 1077.48 L53.0754 1073.55 Z" fill="#000000" fill-rule="evenodd" fill-opacity="1" /><path clip-path="url(#clip490)" d="M96.8715 1086.44 L113.191 1086.44 L113.191 1090.38 L91.2465 1090.38 L91.2465 1086.44 Q93.9086 1083.69 98.4919 1079.06 Q103.098 1074.41 104.279 1073.06 Q106.524 1070.54 107.404 1068.8 Q108.307 1067.04 108.307 1065.35 Q108.307 1062.6 106.362 1060.86 Q104.441 1059.13 101.339 1059.13 Q99.14 1059.13 96.6863 1059.89 Q94.2558 1060.66 91.478 1062.21 L91.478 1057.48 Q94.3021 1056.35 96.7558 1055.77 Q99.2095 1055.19 101.246 1055.19 Q106.617 1055.19 109.811 1057.88 Q113.006 1060.56 113.006 1065.05 Q113.006 1067.18 112.196 1069.1 Q111.408 1071 109.302 1073.6 Q108.723 1074.27 105.621 1077.48 Q102.52 1080.68 96.8715 1086.44 Z" fill="#000000" fill-rule="evenodd" fill-opacity="1" /><path clip-path="url(#clip490)" d="M101.246 763.625 Q97.6354 763.625 95.8067 767.189 Q94.0012 770.731 94.0012 777.861 Q94.0012 784.967 95.8067 788.532 Q97.6354 792.074 101.246 792.074 Q104.881 792.074 106.686 788.532 Q108.515 784.967 108.515 777.861 Q108.515 770.731 106.686 767.189 Q104.881 763.625 101.246 763.625 M101.246 759.921 Q107.057 759.921 110.112 764.527 Q113.191 769.111 113.191 777.861 Q113.191 786.587 110.112 791.194 Q107.057 795.777 101.246 795.777 Q95.4363 795.777 92.3576 791.194 Q89.3021 786.587 89.3021 777.861 Q89.3021 769.111 92.3576 764.527 Q95.4363 759.921 101.246 759.921 Z" fill="#000000" fill-rule="evenodd" fill-opacity="1" /><path clip-path="url(#clip490)" d="M96.8715 495.899 L113.191 495.899 L113.191 499.834 L91.2465 499.834 L91.2465 495.899 Q93.9086 493.144 98.4919 488.514 Q103.098 483.862 104.279 482.519 Q106.524 479.996 107.404 478.26 Q108.307 476.501 108.307 474.811 Q108.307 472.056 106.362 470.32 Q104.441 468.584 101.339 468.584 Q99.14 468.584 96.6863 469.348 Q94.2558 470.112 91.478 471.663 L91.478 466.941 Q94.3021 465.806 96.7558 465.228 Q99.2095 464.649 101.246 464.649 Q106.617 464.649 109.811 467.334 Q113.006 470.019 113.006 474.51 Q113.006 476.64 112.196 478.561 Q111.408 480.459 109.302 483.052 Q108.723 483.723 105.621 486.94 Q102.52 490.135 96.8715 495.899 Z" fill="#000000" fill-rule="evenodd" fill-opacity="1" /><path clip-path="url(#clip490)" d="M103.608 174.076 L91.8021 192.525 L103.608 192.525 L103.608 174.076 M102.381 170.002 L108.26 170.002 L108.26 192.525 L113.191 192.525 L113.191 196.414 L108.26 196.414 L108.26 204.562 L103.608 204.562 L103.608 196.414 L88.0058 196.414 L88.0058 191.9 L102.381 170.002 Z" fill="#000000" fill-rule="evenodd" fill-opacity="1" /><polyline clip-path="url(#clip492)" style="stroke:#009af9; stroke-linecap:butt; stroke-linejoin:round; stroke-width:4; stroke-opacity:1; fill:none" points="
  211.556,874.696 232.554,705.476 253.553,978.27 274.551,811.824 295.549,665.996 316.548,1087.24 337.546,459.264 358.544,490.633 379.543,502.544 400.541,87.9763 
  421.539,803.345 442.538,1188.53 463.536,116.097 484.534,942.622 505.533,392.232 526.531,905.895 547.529,439.134 568.528,548.634 589.526,758.329 610.524,1009.57 
  631.523,781.843 652.521,780.746 673.519,1087.08 694.518,1407.43 715.516,1445.72 736.514,586.412 757.513,547.365 778.511,1215.43 799.509,745.269 820.508,887.935 
  841.506,1033.49 862.504,986.266 883.503,1334.15 904.501,621.727 925.499,1056.85 946.498,862.051 967.496,586.274 988.494,854.967 1009.49,496.598 1030.49,683.844 
  1051.49,722.259 1072.49,776.011 1093.49,765.769 1114.48,1167.86 1135.48,1376.91 1156.48,603.805 1177.48,997.527 1198.48,1022.09 1219.48,647.679 1240.47,1106.17 
  1261.47,529.923 1282.47,756.323 1303.47,894.016 1324.47,474.246 1345.47,708.128 1366.46,555.854 1387.46,945.713 1408.46,947.194 1429.46,472.253 1450.46,404.702 
  1471.46,1064.7 1492.45,878.392 1513.45,1130.81 1534.45,1031.15 1555.45,897.308 1576.45,938.581 1597.45,635.793 1618.44,704.201 1639.44,865.328 1660.44,523.847 
  1681.44,593.218 1702.44,868.199 1723.44,530.852 1744.43,1103.35 1765.43,607.206 1786.43,777.735 1807.43,983.636 1828.43,750.964 1849.43,733.371 1870.42,1080.07 
  1891.42,733.344 1912.42,877.56 1933.42,442.332 1954.42,287.23 1975.42,746.038 1996.41,809.252 2017.41,797.068 2038.41,659.194 2059.41,823.782 2080.41,884.553 
  2101.41,281.721 2122.4,689.707 2143.4,272.257 2164.4,1185.14 2185.4,232.873 2206.4,754.78 2227.4,821.744 2248.39,1245.79 2269.39,862.96 2290.39,975.011 
  
  "/>
<path clip-path="url(#clip490)" d="
M1982.03 198.898 L2279.3 198.898 L2279.3 95.2176 L1982.03 95.2176  Z
  " fill="#ffffff" fill-rule="evenodd" fill-opacity="1"/>
<polyline clip-path="url(#clip490)" style="stroke:#000000; stroke-linecap:butt; stroke-linejoin:round; stroke-width:4; stroke-opacity:1; fill:none" points="
  1982.03,198.898 2279.3,198.898 2279.3,95.2176 1982.03,95.2176 1982.03,198.898 
  "/>
<polyline clip-path="url(#clip490)" style="stroke:#009af9; stroke-linecap:butt; stroke-linejoin:round; stroke-width:4; stroke-opacity:1; fill:none" points="
  2006.52,147.058 2153.42,147.058 
  "/>
<path clip-path="url(#clip490)" d="M2191.75 166.745 Q2189.94 171.375 2188.23 172.787 Q2186.52 174.199 2183.65 174.199 L2180.24 174.199 L2180.24 170.634 L2182.74 170.634 Q2184.5 170.634 2185.47 169.8 Q2186.45 168.967 2187.63 165.865 L2188.39 163.921 L2177.91 138.412 L2182.42 138.412 L2190.52 158.689 L2198.62 138.412 L2203.14 138.412 L2191.75 166.745 Z" fill="#000000" fill-rule="evenodd" fill-opacity="1" /><path clip-path="url(#clip490)" d="M2210.43 160.402 L2218.07 160.402 L2218.07 134.037 L2209.76 135.703 L2209.76 131.444 L2218.02 129.778 L2222.7 129.778 L2222.7 160.402 L2230.34 160.402 L2230.34 164.338 L2210.43 164.338 L2210.43 160.402 Z" fill="#000000" fill-rule="evenodd" fill-opacity="1" /></svg>
